<?xml version="1.0" standalone="no"?>
<!DOCTYPE svg PUBLIC "-//W3C//DTD SVG 1.1//EN" "http://www.w3.org/Graphics/SVG/1.1/DTD/svg11.dtd" >
<svg xmlns="http://www.w3.org/2000/svg">
<metadata></metadata>
<defs>
<font id="flottflottregular" horiz-adv-x="856" >
<font-face units-per-em="2048" ascent="1536" descent="-512" />
<missing-glyph horiz-adv-x="647" />
<glyph horiz-adv-x="0" />
<glyph horiz-adv-x="682" />
<glyph unicode=" "  horiz-adv-x="647" />
<glyph unicode="&#x09;" horiz-adv-x="647" />
<glyph unicode="&#xa0;" horiz-adv-x="647" />
<glyph unicode="!" horiz-adv-x="534" d="M20 143q0 55 34 99.5t93 42.5q27 0 54.5 -10.5t50 -29t36 -43t13.5 -52.5q0 -59 -38 -107.5t-101 -48.5q-66 2 -104 44t-38 105zM160 350q35 94 80 185.5t86 183.5l82 188t81 189q6 16 15.5 42.5t20 54.5t21.5 51.5t25 31.5q12 8 37 13t50.5 8t51.5 6.5t42 5.5 q-37 -80 -67 -163t-64 -165q-29 -66 -55.5 -129.5t-55.5 -126.5q-12 -27 -28.5 -52.5t-26.5 -51.5q-8 -18 -13.5 -38t-13.5 -38q-16 -43 -35.5 -85t-36.5 -85z" />
<glyph unicode="&#x22;" horiz-adv-x="819" d="M426 940q27 61 35 79.5t6 15.5t-9 -17t-9.5 -17.5t5 15t35.5 80.5q6 16 15.5 42.5t20 54.5t21.5 51.5t25 31.5q12 8 37 13t50.5 8t51 6.5t42.5 5.5l-129 -344zM729 940q27 61 35 79.5t6 15.5t-9 -17t-9 -17.5t6 15t35 80.5q6 16 15 42.5t19.5 54.5t21.5 51.5t25 31.5 q12 8 37 13t50.5 8t51 6.5t42.5 5.5l-129 -344z" />
<glyph unicode="$" horiz-adv-x="997" d="M-238 10q25 55 58 104.5t65 100.5l533 -2q31 0 70.5 5t74.5 19.5t60.5 39t25.5 65.5q0 37 -25.5 74t-62.5 75.5t-81 79.5t-82 86t-62.5 95.5t-24.5 105.5q0 35 10.5 69t26.5 64q43 74 106.5 137.5t140.5 116.5t163 93t176 67q16 47 30.5 92t36.5 88q10 18 17.5 27.5 t15.5 14.5t20.5 7t30.5 8q35 10 70 23.5t70 13.5q12 0 32 -4q-29 -57 -54 -114.5t-50 -116.5q16 0 29.5 1t27.5 1q72 0 108 -45t34 -111q0 -61 -38 -138t-90.5 -154.5t-109.5 -147.5t-96 -115h-246q31 47 83 110.5t103.5 131t92.5 133.5t51 115h-21q-37 0 -91 -14.5 t-113.5 -40t-119 -59.5t-106.5 -74t-76.5 -83t-29.5 -86q0 -31 23.5 -66.5t60.5 -74.5t79 -83t78.5 -90t61 -95t24.5 -101q0 -41 -13 -81.5t-34.5 -79.5t-50.5 -72t-61 -53q-29 -18 -64 -29.5t-71.5 -18t-73.5 -7.5t-70 -1h-115q-23 -53 -43 -107t-40 -110h-213 q10 59 32.5 109.5t46.5 103.5q-86 -2 -170 -3t-170 1z" />
<glyph unicode="&#x26;" horiz-adv-x="1046" d="M20 229q0 70 36 128.5t88.5 107.5t113.5 88t113 72q-10 47 -33 93t-23 97q0 68 35 128.5t90.5 107.5t122 74.5t129.5 27.5q88 0 144.5 -60.5t56.5 -146.5q0 -57 -32 -108.5t-79 -95.5t-99 -81.5t-91 -68.5q6 -10 18.5 -37t26.5 -55.5t28.5 -51t24.5 -22.5q12 0 42 23.5 t63.5 53t64.5 58.5t43 39q16 -41 30.5 -82t35.5 -82q-51 -39 -102.5 -78t-102.5 -77q18 -31 32.5 -64t41.5 -59q14 -14 16 -11t16 -6q39 0 78 4.5t78 4.5q-8 -18 -15 -45t-18.5 -51.5t-29 -42t-43.5 -17.5h-197q-25 45 -51.5 88t-55.5 84q-45 -29 -84.5 -60.5t-81.5 -58.5 t-88.5 -44t-103.5 -17q-51 0 -95 19.5t-76 52t-49.5 76.5t-17.5 95zM182 201q18 -10 38 -25.5t42 -15.5q29 0 68 18.5t79 45t75.5 53t58.5 45.5q-25 35 -47.5 71.5t-42.5 75.5q-43 -20 -89.5 -44t-86 -55.5t-66.5 -72.5t-29 -96zM489 838q0 -23 10.5 -45.5t20.5 -44.5 q18 12 55 36.5t74 52t63.5 57.5t26.5 54q0 12 -12 28.5t-27 16.5q-29 0 -64.5 -12t-68 -33.5t-55.5 -50t-23 -59.5z" />
<glyph unicode="'" horiz-adv-x="534" d="M426 940q27 61 35 79.5t6 15.5t-9 -17t-9.5 -17.5t5 15t35.5 80.5q6 16 15.5 42.5t20 54.5t21.5 51.5t25 31.5q12 8 37 13t50.5 8t51 6.5t42.5 5.5l-129 -344z" />
<glyph unicode="(" horiz-adv-x="485" d="M20 -518q0 225 52.5 450.5t140.5 442.5t202.5 421.5t239.5 387.5q63 92 127 182t144 170q6 2 20 2q33 0 64.5 -13.5t62.5 -23.5q-57 -80 -118.5 -157.5t-118.5 -159.5q-33 -47 -73 -105.5t-79 -121t-75 -123t-60 -109.5q-82 -168 -147.5 -320.5t-110.5 -306t-69.5 -317.5 t-24.5 -354q0 -12 -4.5 -24.5t-14.5 -20.5q-41 6 -80 14t-75 26q-2 16 -2.5 31t-0.5 29z" />
<glyph unicode=")" horiz-adv-x="485" d="M-313 -582q57 80 118.5 158t118.5 160q33 47 73 105.5t79 121t74.5 122.5t60.5 110q82 168 147.5 320.5t110.5 306t69.5 317.5t24.5 354q0 12 4 24.5t15 20.5q41 -6 79.5 -14t75.5 -27q2 -16 2 -30.5v-28.5q0 -225 -52 -450.5t-140 -442.5t-203 -422t-240 -387 q-63 -92 -126.5 -182t-143.5 -170q-6 -2 -20 -2q-33 0 -65 13t-62 23z" />
<glyph unicode="+" d="M178 473l66 172h207l71 197l183 2l-72 -199h211l-66 -172h-209l-69 -194l-185 -3l72 197h-209z" />
<glyph unicode="," horiz-adv-x="380" d="M20 -137q25 39 57 71.5t50 75.5q-10 25 -20.5 38t-19.5 26.5t-14 31t-5 52.5q0 23 11 47t28.5 44.5t40 34t45.5 13.5q72 0 119.5 -38t47.5 -114q0 -35 -15 -75.5t-37.5 -81.5t-49.5 -78t-49 -64q-16 -20 -39 -27t-47 -7h-33.5t-33 5t-26 15t-10.5 31z" />
<glyph unicode="-" d="M178 473l66 172h600l-66 -172h-600z" />
<glyph unicode="." horiz-adv-x="335" d="M20 172q0 61 47.5 98t104.5 37q59 0 101 -46t42 -103q0 -29 -14 -57.5t-37.5 -51t-52.5 -38t-55 -15.5q-33 0 -57.5 16.5t-42 42t-27 57t-9.5 60.5z" />
<glyph unicode="/" horiz-adv-x="616" d="M-8 12q29 66 69.5 122t83.5 116q133 193 263.5 384t265.5 384q55 78 106 157.5t109 153.5q14 18 24.5 27.5t20.5 14.5t22.5 7t32.5 8q37 10 76 23.5t74 13.5q10 0 30 -4q-123 -158 -227 -322.5t-221 -324.5q-135 -188 -264 -377.5t-254 -382.5h-211z" />
<glyph unicode="0" horiz-adv-x="1003" d="M20 412q0 70 15.5 146.5t44.5 151t69.5 142.5t92.5 117q37 33 84 63.5t100 53t107.5 36t105.5 13.5q92 0 169 -33t132 -89.5t85 -134t30 -169.5q0 -129 -47 -256t-130 -228.5t-199 -164t-251 -62.5q-70 0 -137.5 22.5t-122.5 63.5t-94 99.5t-47 129.5q-6 49 -7 99z M195 389q0 -16 5 -36.5t14 -42t20.5 -40t21.5 -30.5q29 -31 77 -45.5t85 -14.5q84 0 153.5 36t123 92.5t91 128t60.5 143.5q10 33 16 62.5t6 64.5q2 111 -59 177t-174 66q-109 0 -185.5 -49t-128 -127t-81 -172t-41.5 -182q-4 -21 -4 -31z" />
<glyph unicode="1" horiz-adv-x="509" d="M20 29q63 133 119 268t113 270q35 80 71.5 161t61.5 167q-59 -12 -118.5 -28.5t-119.5 -35.5q-12 37 -23 73t-18 75q20 6 67.5 18.5t107 28.5t124 33.5t121 32t98.5 23.5t56 9q-117 -268 -222.5 -536.5t-224.5 -536.5l-86 -16t-88 -8h-19t-20 2z" />
<glyph unicode="2" horiz-adv-x="1093" d="M20 -39q4 10 33 48t63 81t63.5 78t39.5 39q29 14 61.5 10t61.5 12q90 49 178 101.5t166 120.5q37 31 90 75.5t102.5 96t84 106.5t34.5 109q0 49 -39.5 76.5t-87.5 27.5q-74 0 -143.5 -27.5t-135 -68.5t-125.5 -90t-116 -92q2 51 8.5 111.5t18.5 109.5q6 25 22.5 38 t34.5 27q51 35 107.5 67t116 56.5t122 37.5t123.5 13q59 0 111.5 -18.5t92.5 -53t62.5 -82.5t22.5 -110q0 -55 -17.5 -105t-45 -96.5t-62.5 -89.5t-70 -80q-82 -88 -182 -150.5t-203 -125.5q27 -2 52.5 -2h50.5q104 -2 206.5 3t206.5 5q-20 -49 -50.5 -90t-49.5 -90l-614 2 q-43 0 -84 -13.5t-83 -29.5t-84 -29.5t-87 -13.5q-29 0 -56 6z" />
<glyph unicode="3" horiz-adv-x="913" d="M20 258q53 -8 100.5 -17.5t94.5 -16.5t95 -11t104 -4q31 0 80 3t96 16.5t81 38t34 67.5q0 33 -21 53q-23 51 -73 73.5t-109.5 29t-121 4.5t-106.5 2q18 53 42 103t49 101q37 -4 73.5 -7t73.5 -3q35 0 83 8.5t92 29t75 52t31 78.5q0 23 -21.5 35t-51.5 18.5t-60.5 7.5 t-47.5 1q-82 2 -161.5 -13.5t-157.5 -34.5q12 51 32.5 97.5t49.5 91.5q12 23 27.5 22.5t37.5 1.5q57 4 113 11.5t115 7.5q51 0 109.5 -11.5t106.5 -37t79.5 -69.5t31.5 -107q0 -39 -14 -88.5t-35 -83.5q-12 -23 -34.5 -42.5t-49 -35t-54.5 -28.5t-50 -26q66 -35 102.5 -99 t36.5 -138q0 -92 -46 -154.5t-114.5 -101.5t-151.5 -54.5t-159 -15.5q-29 0 -79 4t-104.5 10.5t-102.5 15.5t-72 19q-20 47 -25.5 98.5t-22.5 98.5z" />
<glyph unicode="4" horiz-adv-x="997" d="M20 289q18 57 42 111.5t73 91.5q201 156 403.5 304t401.5 308q31 4 60.5 8t60.5 4q14 0 26.5 -1t24.5 -3q0 -14 8 -16q-47 -96 -86 -194.5t-80 -196.5q-16 -41 -32.5 -79t-32.5 -79q-8 -23 -13.5 -45.5t-11.5 -44.5h164l-74 -172h-163q-29 -66 -51.5 -130.5t-57.5 -123.5 q-53 -12 -106.5 -18.5t-106.5 -12.5q35 70 69.5 139.5t55.5 147.5q-96 0 -191.5 -2t-191.5 -2t-191 6zM340 451l278 -2q18 6 37 6t29 18q8 12 13 29.5t12 34.5q29 72 62.5 142.5t53.5 145.5q-57 -31 -99 -72.5t-91 -82.5q-70 -59 -147.5 -107.5t-147.5 -111.5z" />
<glyph unicode="5" horiz-adv-x="903" d="M20 217q57 -4 115 -8t115 -4q123 0 226.5 39t191.5 127q31 31 36 56.5t13 66.5q-63 29 -142 28q-82 2 -160.5 -20.5t-156.5 -38.5q-12 33 -26.5 64.5t-14.5 66.5q0 8 13.5 39t31 67.5t33.5 69.5t22 45q27 63 49.5 127t49.5 127q10 25 25 29t40 2l549 -2 q-12 -49 -32.5 -94.5t-41.5 -92.5q-72 0 -142.5 2t-141.5 2q-35 0 -71 -1t-71 -3q-18 -61 -48.5 -117.5t-51.5 -117.5q53 4 105.5 15t105.5 11q27 0 59.5 -5t64.5 -16t60.5 -27.5t46.5 -37.5q18 -23 26.5 -62.5t8.5 -68.5q0 -111 -53 -186.5t-139 -140.5q-117 -88 -251 -118 t-278 -30q-68 0 -98.5 5t-41.5 25.5t-13 61.5t-13 115z" />
<glyph unicode="6" horiz-adv-x="800" d="M23 256q0 104 59 221t145 228.5t181.5 210t164.5 163.5q33 31 61 64t71 51q53 0 103 -10t101 -23q-35 -59 -92 -106t-104 -99q-59 -66 -127 -122t-121 -132q23 2 43 4.5t43 2.5q104 0 161.5 -56.5t57.5 -160.5q0 -86 -43 -176.5t-112.5 -164t-156.5 -119.5t-175 -46 q-59 0 -107.5 20.5t-82.5 56t-52 85t-18 108.5zM203 295q0 -55 14 -89t80 -34q55 0 105.5 28.5t90 73.5t63.5 99.5t24 107.5q0 45 -38 71t-79 26q-10 0 -19.5 -1.5t-19.5 -3.5q-51 -12 -84 -46.5t-64 -75.5q-23 -33 -48 -74t-25 -82z" />
<glyph unicode="7" horiz-adv-x="657" d="M20 -4q25 78 66 152.5t76 150.5q37 82 83 159t97 152.5t101.5 150.5t97.5 150q-125 2 -250 -2t-250 -4q12 51 33.5 97.5t48.5 91.5q37 -2 73.5 -2h71.5q158 0 312.5 6t312.5 10q-12 -53 -44 -92t-63 -80q-129 -174 -248.5 -355.5t-211.5 -379.5q-16 -35 -30.5 -72 t-37.5 -68q-59 -20 -118.5 -36.5t-119.5 -28.5z" />
<glyph unicode="8" horiz-adv-x="841" d="M-33 324q0 63 28 121.5t74 101.5t106.5 67.5t123.5 24.5q-25 41 -44 86t-19 94q0 76 34.5 131.5t90 92t122.5 54t133 17.5q59 0 115.5 -17.5t101 -49t71 -80.5t26.5 -115q0 -59 -21.5 -103t-55.5 -79t-78 -60.5t-91 -46.5q41 -47 60.5 -105.5t19.5 -117.5 q0 -86 -33 -147.5t-87 -101.5t-124.5 -58.5t-148.5 -18.5q-74 0 -146.5 16.5t-130 52.5t-92.5 95.5t-35 145.5zM143 322q0 -37 17.5 -60.5t45 -39t60.5 -21.5t62 -6q41 0 87 6t85 24.5t64.5 51t25.5 85.5q0 41 -19.5 68t-49 43t-64.5 22.5t-68 6.5q-43 0 -86 -9.5t-79 -31 t-58.5 -56t-22.5 -83.5zM399 817q0 -33 14.5 -55.5t38 -35.5t51 -18.5t54.5 -5.5q33 0 69 9.5t64.5 28t48 46t19.5 66.5q0 16 -6.5 26.5t-16.5 20.5q-41 39 -84 45t-96 6q-25 0 -51.5 -11t-50 -29.5t-39 -43t-15.5 -49.5z" />
<glyph unicode="9" horiz-adv-x="821" d="M20 31q12 35 43 60.5t56 53.5q80 86 167 165t154 177q-25 -4 -49 -6t-49 -2q-115 2 -163 62.5t-48 169.5q0 88 40 177t104.5 160.5t149.5 115.5t177 44q141 -2 209 -76.5t68 -211.5q0 -80 -39 -169t-95.5 -177.5t-121 -166t-117.5 -133.5q-68 -70 -134.5 -142.5 t-146.5 -127.5q-10 -4 -22.5 -4h-22.5q-41 0 -80 10t-80 21zM328 713q0 -43 27.5 -74t72.5 -31q47 0 94 32t84 80t60.5 102.5t23.5 97.5q0 47 -22.5 72.5t-69.5 25.5q-57 0 -106.5 -27.5t-85 -72t-57 -98.5t-21.5 -107z" />
<glyph unicode=":" horiz-adv-x="483" d="M20 145q0 27 10.5 56.5t29 52t43 38t55.5 15.5q72 0 118 -46t46 -118t-48.5 -108.5t-113.5 -36.5q-57 0 -98.5 46t-41.5 101zM172 502q0 61 39 105t102 44q84 0 117 -51t33 -125q0 -55 -42 -90t-95 -35q-72 0 -113 40t-41 112z" />
<glyph unicode=";" horiz-adv-x="557" d="M20 -156q27 45 62 82t61 82q-16 29 -40.5 60.5t-24.5 66.5q0 31 11 59.5t31.5 52t48.5 38t58 14.5q59 0 103.5 -45t44.5 -104q0 -41 -16.5 -79t-41 -75t-52 -71t-48.5 -64q-25 -37 -76 -37q-31 0 -60.5 8t-60.5 12zM231 477q0 63 41 110.5t107 47.5q31 0 59.5 -14.5 t50 -37t35 -52t13.5 -60.5q0 -66 -50.5 -103.5t-107.5 -37.5q-59 0 -103.5 44t-44.5 103z" />
<glyph unicode="&#x3c;" horiz-adv-x="667" d="M27 510q0 18 4 30.5t14 28.5q25 43 58.5 78t70.5 65.5t76 60.5t76 65l131 129l284 -2q-123 -115 -244.5 -228.5t-246.5 -226.5q94 -125 192.5 -245t190.5 -249q-41 2 -83 0t-83 -2q-23 0 -44.5 1t-43.5 3q-76 94 -151.5 185.5t-149.5 185.5q-20 27 -35.5 56.5t-15.5 64.5 z" />
<glyph unicode="=" d="M117 305l65 172h600l-65 -172h-600zM242 643l65 172h600l-65 -172h-600z" />
<glyph unicode="&#x3e;" horiz-adv-x="667" d="M27 16q123 115 244.5 228.5t246.5 226.5q-94 125 -192.5 245t-190.5 249q41 -2 83 0t83 2q23 0 44.5 -1t43.5 -3q76 -94 151.5 -185.5t149.5 -185.5q20 -27 35.5 -56.5t15.5 -64.5q0 -18 -4 -30.5t-14 -28.5q-25 -43 -58.5 -78t-70.5 -65.5t-76 -61.5t-76 -64l-131 -129z " />
<glyph unicode="?" horiz-adv-x="643" d="M20 147q0 53 23 105q16 16 52 33.5t59 17.5q31 0 59.5 -10t51 -29.5t36.5 -46.5t14 -59q0 -29 -13 -56.5t-34.5 -49t-49.5 -34t-56 -12.5q-63 0 -102.5 40t-39.5 101zM125 367q10 47 23.5 84.5t32 70.5t43 64.5t57.5 66.5q53 55 106 106.5t113 100.5q47 37 98 75t94 79 q8 8 19.5 21.5t21.5 27.5t17.5 29.5t7.5 27.5q0 31 -23.5 53.5t-54.5 22.5q-55 0 -120.5 -26.5t-132.5 -64.5t-130.5 -77t-112.5 -63q12 53 19.5 106t21.5 107q25 33 87.5 66.5t136 61t145.5 44t115 16.5l47 2q49 0 87 -20.5t64.5 -52t41 -73.5t14.5 -87q0 -47 -30 -96.5 t-72 -93.5t-88 -82t-81 -62q-51 -39 -104 -80t-101.5 -87t-89.5 -98.5t-67 -111.5q-10 -12 -23.5 -26.5t-34.5 -6.5q-29 -10 -59.5 -18t-60.5 -8h-13.5t-13.5 2z" />
<glyph unicode="A" horiz-adv-x="1333" d="M20 369q18 53 48 98t51 96h229q25 43 41.5 90t40.5 90q39 66 94.5 139.5t123 147.5t144 140.5t158.5 117.5t166 81t166 30q39 0 63.5 -9.5t53.5 -35.5q37 -35 57.5 -72t29.5 -78t10 -86t1 -92q0 -51 -20.5 -133t-52 -179.5t-72.5 -201.5t-83 -199.5t-82 -174.5t-71 -126 q-55 0 -110.5 1t-110.5 7q49 86 95 175.5t79 185.5q-121 -5 -240 -5h-39h-26q-126 0 -252 -9q-2 -53 -6 -103.5t-4 -103.5q0 -86 23.5 -164t33.5 -162q-119 12 -229 49q-33 158 -33 328q0 41 3 82t7 82q-72 0 -143.5 -1t-143.5 -5zM578 571q23 0 45 -4t45 -6q123 0 241.5 4 t241.5 4q20 47 41.5 84t32.5 86q18 78 43.5 151t25.5 154q0 18 -1 44t-7 48.5t-19.5 38t-39.5 15.5h-7q-50 0 -90 -24q-44 -26 -83 -56q-152 -104 -272.5 -237.5t-196.5 -301.5z" />
<glyph unicode="B" horiz-adv-x="1400" d="M20 -14q6 20 30 58t57.5 85t72.5 97t77 97.5t68.5 85t49.5 58.5q27 33 59.5 88t65 122.5t66.5 142.5t62.5 145.5t52.5 133t40 105.5q8 20 15 41t26 33q18 12 46 24.5t57.5 23.5t59 19.5t50.5 12.5q-51 -119 -104.5 -235.5t-100.5 -237.5q68 70 139.5 154.5t151.5 162.5 t169 138.5t189 82.5q10 2 19.5 3t19.5 1q57 0 101.5 -23.5t74 -62t44 -88t14.5 -102.5q0 -123 -55.5 -220t-139.5 -181q-47 -47 -99 -78t-114 -60q16 -37 28.5 -65.5t19.5 -57t11.5 -60.5t4.5 -73q0 -51 -14.5 -110.5t-44 -111.5t-74 -88t-105.5 -40q-25 -3 -50 -3 q-13 0 -26 1q-39 2 -78 2q-46 1 -92 1q-115 0 -229 -7l-8 25q37 47 54 77.5t27.5 50t19.5 27.5t30.5 10.5t62.5 1t115 -1.5q51 0 92 7.5t68.5 28t43 56t15.5 91.5q0 53 -20.5 101t-63.5 81q-12 4 -25.5 4h-25.5q-37 0 -72 -4q-23 -3 -47 -3q-12 0 -24 1h-25.5t-26.5 4 q37 55 86.5 99t94.5 96q35 -4 69.5 -11.5t69.5 -7.5h16t17 2q59 16 118.5 59.5t107.5 101.5t77.5 126t29.5 129q0 35 -14 59.5t-55 26.5q-4 0 -8 -1t-9 -1q-27 -2 -44 -8t-32.5 -16.5t-29.5 -22.5t-33 -27q-82 -61 -168 -140t-171 -165t-163.5 -173t-146.5 -167 q-47 -55 -86 -115.5t-76 -122t-76 -121t-84 -114.5q-70 -31 -144.5 -41t-150.5 -16z" />
<glyph unicode="C" horiz-adv-x="1067" d="M23 340q0 43 16 97.5t40.5 107.5t53.5 103t53 85q119 166 253 298t306 241q109 68 219.5 116t241.5 48q98 0 161 -58.5t63 -158.5q0 -70 -33 -141.5t-85 -141.5t-121 -136.5t-139.5 -124t-138 -106.5t-120.5 -84q-16 -10 -34 -18t-38 -8q-55 0 -123 18.5t-117 40.5 q53 35 112.5 63.5t108.5 67.5q25 20 48.5 41t50.5 41q45 37 99 79t107.5 87t101.5 94t79 99q16 29 20 60.5t4 61.5q-16 6 -32.5 10.5t-32.5 4.5q-47 0 -86 -16.5t-78 -39.5q-113 -61 -226.5 -143t-213 -180t-178 -212t-121.5 -239q-10 -27 -11 -49v-6q0 -55 35 -93 q37 -40 97 -42q51 0 102 -4t104 -4q104 0 208 4q69 3 139 3l69 -1q-12 -57 -52 -102.5t-71 -92.5q-115 -6 -229.5 -7t-228.5 -1q-88 0 -160 16.5t-121 55.5t-75.5 103.5t-26.5 162.5z" />
<glyph unicode="D" horiz-adv-x="1200" d="M20 14q18 135 65.5 265.5t92.5 259.5q29 86 57.5 176t75.5 168q12 20 47 36.5t76 26.5t82 16.5t66 8.5q-37 -66 -83 -165t-89 -206.5t-78 -211t-49 -177.5q121 29 234.5 92.5t217.5 126.5q76 47 171 125t180 173t142.5 197.5t57.5 198.5q0 27 -15.5 42.5t-37 23.5t-46 10 t-42.5 2h-14q-53 0 -105 -13q-58 -15 -117 -30q-158 -37 -309 -80t-305 -98q-53 -20 -105.5 -46t-107.5 -44q0 127 49 237q23 23 54.5 35.5t60.5 22.5q115 37 232.5 73.5t237.5 67.5t240.5 51.5t241.5 24.5h23q123 0 199.5 -76t76.5 -199q0 -59 -21.5 -126.5t-54 -133 t-73.5 -125t-80 -102.5q-59 -68 -116.5 -137.5t-129.5 -122.5q-59 -45 -143 -101.5t-175.5 -109.5t-180.5 -95t-158 -61q-61 -16 -133 -24t-138 -8q-4 0 -15 4t-22.5 10t-21.5 11t-15 7z" />
<glyph unicode="E" horiz-adv-x="1210" d="M20 170q0 27 7.5 57.5t19.5 53.5q18 33 82 86t138.5 109t147 105.5t109.5 73.5q-14 37 -28.5 61.5t-24.5 47t-16 51.5t-6 76q0 80 36.5 151.5t97 130t138.5 104.5t162 79t165.5 49t151.5 16q43 0 86 -11t77 -35.5t54.5 -60.5t20.5 -85q0 -68 -22.5 -134.5t-69.5 -113.5 q-66 -66 -142 -123t-155 -106q-47 27 -94.5 47t-92.5 43q45 39 105.5 80t118 85t104.5 94t65 109q-35 12 -71 13q-47 0 -101.5 -13.5t-106.5 -35t-101.5 -48t-86.5 -53.5q-18 -14 -40.5 -36.5t-43 -50.5t-34 -56.5t-13.5 -52.5q0 -43 20.5 -78t45.5 -64.5t46.5 -56.5 t21.5 -53q0 -23 -14.5 -46.5t-31.5 -37.5q-35 -29 -76.5 -55.5t-80.5 -51.5q-86 -57 -170 -112.5t-166 -114.5q145 -1 289 -1h145q217 1 434 5q-12 -53 -42.5 -100.5t-63.5 -87.5q-16 -20 -45 -22.5t-54 -2.5l-655 4q-43 0 -85 7t-77 25.5t-56.5 51.5t-21.5 84z" />
<glyph unicode="F" horiz-adv-x="1267" d="M20 1182q0 35 16.5 60.5t43.5 47.5q66 61 155 80t175 19l1163 -7q-14 -53 -33.5 -103t-50.5 -91q-80 0 -160 4t-160 4q-20 -45 -35.5 -90t-37.5 -90q-41 -84 -73 -171t-69 -171l238 -2q-12 -53 -34.5 -104.5t-47.5 -100.5q-61 0 -122.5 5t-123.5 5q-49 -104 -94 -207.5 t-88 -210.5q-4 -10 -9 -22t-16 -19q-8 -4 -39.5 -9t-69.5 -9t-73 -8t-47 -6q41 127 99.5 247.5t107.5 243.5q-53 6 -106.5 7t-106.5 1q18 49 40.5 98.5t41.5 98.5q35 0 68.5 -2t68.5 -2q8 0 34.5 1t33.5 3q20 8 34.5 40t22.5 50q47 106 96 210.5t86 215.5q-143 6 -286.5 7 t-286.5 3q-14 0 -33.5 -4t-38 -11t-31 -19.5t-12.5 -30.5q0 -33 18.5 -61.5t44 -55.5t52 -53.5t41.5 -52.5q-53 -18 -106.5 -30.5t-106.5 -25.5q-31 33 -62.5 69t-58.5 76t-44.5 83t-17.5 90z" />
<glyph unicode="G" horiz-adv-x="1056" d="M23 334q0 111 47 230.5t118.5 231t157.5 211t166 171.5q57 51 130 103t151.5 96t160.5 78t158 48q35 6 70 15q27 6 56 6h13q37 0 71 -13.5t59.5 -36t40 -55.5t14.5 -71q0 -74 -41 -153t-99.5 -153.5t-123 -141t-113.5 -118.5q-53 12 -105.5 24.5t-105.5 24.5 q45 57 96 110.5t100.5 108t92.5 114t71 126.5q-4 4 -10 10.5t-6 14.5q-127 -12 -245 -76.5t-214 -144.5q-57 -47 -115.5 -95.5t-105.5 -107.5q-39 -49 -89 -114.5t-94 -138.5t-75 -145.5t-31 -136.5v-7q0 -61 32 -95q34 -37 101 -37q61 0 116.5 26.5t111.5 49.5 q35 14 64.5 26.5t55 27.5t47 39t37.5 60q8 16 13.5 37t11.5 39.5t17.5 33.5t31.5 22q78 29 165 48t171 25q-43 -86 -97 -158.5t-116 -144.5q-31 -37 -49 -82t-35 -90q-41 -111 -93 -209t-112 -200q-25 -39 -52.5 -67t-55.5 -62q-31 -39 -49.5 -85.5t-57.5 -78.5 q-57 6 -115 14q-32 5 -65 5q-25 0 -49 -3l-8 16q104 104 192 221t162 246q27 45 53.5 88t44.5 91q-53 -18 -98 -47t-98 -50q-49 -18 -100.5 -31.5t-104.5 -13.5q-72 0 -123 26.5t-85 72t-49 102.5t-15 123z" />
<glyph unicode="H" horiz-adv-x="1189" d="M20 379q6 12 27 45t45.5 67.5t48 61.5t35.5 31q18 6 55 4q25 -1 49 -1h25q37 1 64.5 10t27.5 36q35 80 70 157.5t70 155.5q16 39 29.5 77t29.5 75q25 53 46.5 114.5t59.5 106.5q55 25 113.5 36t118.5 29q0 -6 5 -9t9 -7q-68 -135 -124 -272.5t-115 -276.5 q-25 -59 -51.5 -116.5t-39.5 -120.5h295q12 0 24.5 1t25.5 7q25 45 37 94t36 92q27 47 45.5 94.5t38.5 94.5l199 491q8 18 23.5 41t33.5 33q16 8 45 15t62 13.5t63.5 10.5t50.5 8q-43 -121 -97 -236.5t-101 -236.5q-53 -137 -112.5 -271.5t-119.5 -269.5q-37 -84 -69.5 -168 t-71.5 -166q-39 -88 -72.5 -177t-74.5 -175q-6 -12 -13.5 -23.5t-19.5 -17.5t-45 -15t-70 -17.5t-71.5 -15.5t-51.5 -9q63 152 127 299t129 299q-86 6 -172 7t-172 1q-27 -70 -60.5 -139.5t-56.5 -136.5q-10 -25 -15 -44.5t-38 -23.5q-4 0 -6 1t-6 1q-53 -20 -106.5 -36.5 t-106.5 -29.5q6 16 8 33t8 33q29 84 75 172t83 172q-70 0 -139.5 -1t-139.5 -7z" />
<glyph unicode="I" horiz-adv-x="1310" d="M20 6q18 61 59.5 109.5t72.5 103.5q104 0 207.5 2t207.5 2q92 0 163 18.5t144 73.5q53 39 87 81t60 88t46 97.5t45 108.5q49 109 94 216.5t88 217.5q2 18 7.5 37t5.5 37q0 25 -21 33q-45 0 -91 -17.5t-89 -44t-83 -58.5t-73 -58q-18 -16 -56 -53t-77 -79t-68.5 -83 t-29.5 -64q0 -59 31.5 -112.5t66.5 -100.5q-39 -45 -78 -86t-77 -86q-53 86 -97.5 180.5t-44.5 198.5q0 27 5 57.5t16 55.5q23 57 69.5 118.5t108 121t134.5 112.5t147.5 95t146.5 70.5t133 37.5q23 4 45 6t45 2q74 0 120 -53.5t46 -124.5q0 -35 -21.5 -105.5t-51 -150.5 t-59.5 -153t-46 -109q-47 -113 -96.5 -229t-119 -215t-163.5 -171t-229 -96q-68 -12 -138.5 -16.5t-140.5 -8.5q-225 -6 -451 -6z" />
<glyph unicode="J" horiz-adv-x="1177" d="M20 -406q0 88 63.5 168t153 146.5t185.5 119t166 87.5q25 12 50.5 20t48 18.5t39.5 27t26 46.5q23 72 56.5 136.5t59.5 134.5q14 37 40 96t56.5 128t62.5 142.5t58.5 140t44 121t19.5 84.5q-37 -2 -92.5 -20.5t-117.5 -47t-126.5 -64.5t-119 -75.5t-93.5 -80.5t-49 -78 q-8 -18 -9 -42t-1 -44q0 -57 11 -112.5t26.5 -110t34 -108.5t34.5 -108q-53 18 -106.5 36t-106.5 38q-29 10 -35 37t-14 53q-23 72 -33 155t-10 157q2 111 54.5 191.5t138.5 143.5q80 57 154.5 104.5t152.5 84.5t160.5 64.5t181.5 48.5q25 6 45 6q72 -2 115 -47 q40 -43 40 -111v-6q0 -37 -25.5 -115t-65.5 -179t-88 -215t-94 -217.5t-84 -189.5t-54 -131q25 -6 49.5 -7t48.5 -1q23 -53 46.5 -105.5t35.5 -107.5q-104 25 -213 25q-16 0 -35.5 -6.5t-30.5 -18.5q-10 -12 -20 -36.5t-20.5 -52.5t-21.5 -54.5t-19 -44.5 q-49 -90 -96.5 -167t-109 -132.5t-142 -87t-197.5 -31.5q-41 0 -82 14.5t-73 39t-52.5 60t-20.5 80.5zM217 -393q43 -16 82 -17q63 0 116.5 35t96.5 87t72.5 114.5t44.5 116.5q-43 -18 -106.5 -57.5t-126 -86.5t-113 -97t-66.5 -95z" />
<glyph unicode="K" horiz-adv-x="1159" d="M20 12q12 66 38 122t53 116q84 193 162.5 384t160.5 384q35 78 64.5 157.5t66.5 153.5q10 18 17.5 27.5t15.5 14.5t20.5 7t30.5 8q35 10 69.5 23.5t69.5 13.5q12 0 33 -4q-80 -158 -141.5 -322.5t-132.5 -324.5q-84 -188 -162 -377.5t-152 -382.5h-213zM479 510 q0 18 4 30.5t15 28.5q25 43 58.5 78t70.5 65.5t75.5 60.5t75.5 65q68 66 133.5 131t135.5 131q47 41 95 81t95 81q23 18 38 25t44 7q45 0 89 -8t91 -8q8 -8 8 -25q-205 -186 -402.5 -371.5t-402.5 -371.5q94 -125 192.5 -245t190.5 -249q-20 1 -41 1q-22 0 -42 -1 q-42 -2 -82 -2q-23 0 -44.5 1t-44.5 3q-76 94 -151.5 185.5t-149.5 185.5q-20 27 -35.5 56.5t-15.5 64.5z" />
<glyph unicode="L" horiz-adv-x="1400" d="M20 -287q6 47 30 101.5t46 95.5q31 57 67 90t78 54.5t90 38t101 38.5q25 10 32 22.5t17 34.5q39 72 75 142.5t67 146.5q55 135 108 273.5t131 263.5q41 66 94.5 128t116 114.5t134 91t149.5 57.5q14 4 27.5 6t29.5 2q84 0 136.5 -45t52.5 -131q0 -61 -32 -144t-78 -166 t-99.5 -155t-98.5 -113q-49 -10 -99 -18t-101 -8h-22.5t-22.5 4q63 80 125.5 160t121.5 166q37 53 58.5 110t40.5 119q-12 4 -25.5 8t-26.5 4q-10 0 -22 -4q-98 -35 -173 -111.5t-132.5 -173t-98 -200t-73.5 -193.5q-29 -84 -69 -160.5t-73 -158.5q112 4 222 8q74 3 148 3 q37 0 75 -1q63 0 132 1h6q66 0 122 -21q-31 -49 -65.5 -94.5t-65.5 -94.5q-88 4 -176 6t-176 2q-178 0 -353 -6q-111 -115 -250 -194.5t-301 -98.5z" />
<glyph unicode="M" horiz-adv-x="1667" d="M20 -20q31 47 69 89t75 85q16 18 30.5 38.5t30.5 38.5q35 39 70 76l70 74q96 111 189 225.5t183 231.5q84 111 162 223.5t158 224.5q14 20 24.5 37.5t21.5 33t27.5 27t43.5 17.5q45 12 89 19.5t91 11.5q-37 -94 -73 -189.5t-69 -193.5q-12 -37 -22 -75t-25 -75 q-33 -84 -64.5 -166t-53.5 -168q94 106 182 216t180 216q72 86 143.5 172t143.5 172q25 27 54.5 41.5t61 21.5t65.5 9t67 8q-27 -74 -64 -140.5t-70 -135.5q-53 -113 -106 -225.5t-102.5 -227t-90.5 -232.5t-65 -241q47 -6 94 -8t94 -8q-18 -45 -38.5 -88t-43.5 -84 q-16 -12 -35.5 -16.5t-39.5 -4.5q-51 0 -94.5 5t-75 23.5t-50 54.5t-18.5 97q0 66 26.5 150t61.5 172t72 172t59 150q-43 -35 -71.5 -79t-61.5 -85l-444 -564q-20 -27 -35 -55t-47 -43q-37 2 -74 3t-74 7q18 61 47 119t52 119q35 98 78.5 191.5t78.5 191.5q20 59 48 117.5 t36 120.5q-39 -45 -96 -122t-126 -167t-142.5 -185.5t-142 -179.5t-128 -147.5t-98.5 -89.5q-41 -4 -83 -7.5t-83 -3.5q-18 0 -35.5 1t-36.5 4z" />
<glyph unicode="N" horiz-adv-x="1466" d="M20 14q178 164 325 354.5t284 389.5q104 145 190 298.5t182 305.5q63 18 126 31.5t128 25.5q-53 -123 -104 -262t-91 -283.5t-65.5 -290t-29.5 -278.5q76 53 130 129t107 150q61 84 115.5 172t101.5 182q18 35 34.5 72t37.5 71q51 92 92 180.5t74 188.5q8 -12 28.5 -41 t42 -60.5t37 -60t15.5 -41.5q0 -23 -8.5 -41t-18.5 -35q-59 -125 -122.5 -246.5t-135.5 -237.5t-152.5 -226.5t-175.5 -212.5q-25 -29 -63.5 -72t-83.5 -85t-91 -71.5t-83 -29.5q-29 0 -45.5 20.5t-23.5 48t-8 58t-1 53.5q0 84 13.5 167t30.5 165t34.5 162.5t30.5 164.5 q-43 -53 -78 -112.5t-72 -114.5q-141 -225 -309 -432q-20 -29 -42 -56.5t-44 -52.5q-18 -20 -38 -37.5t-48 -21.5q-29 -4 -59.5 -1t-59.5 3q-27 0 -53.5 2t-53.5 8z" />
<glyph unicode="O" horiz-adv-x="1323" d="M23 483q0 55 8 102.5t23.5 92.5t35 89t41.5 91q59 135 158.5 232.5t218.5 177.5q68 47 146.5 73.5t158.5 47.5q23 6 47 8t47 2q80 0 157 -30t140.5 -81t106.5 -120.5t57 -149.5h123q12 -53 19.5 -106.5t11.5 -106.5q-29 0 -56.5 2t-56.5 2q-14 0 -29.5 -1t-29.5 -3 q-23 -94 -66 -190.5t-105.5 -188.5t-139 -173t-166 -140.5t-188.5 -94t-202 -34.5q-109 0 -193.5 39.5t-145 107.5t-91 159t-30.5 193zM217 489q0 -59 17.5 -111t51 -91t82 -61.5t111.5 -22.5q113 0 220.5 54t196.5 141t152.5 192.5t88.5 208.5q-35 4 -67 10t-56.5 19.5 t-40 40t-15.5 71.5q0 59 33 116.5t58 110.5q-63 29 -131 29q-94 0 -188.5 -42t-178.5 -108.5t-151.5 -148.5t-106.5 -162q-29 -59 -52.5 -118.5t-23.5 -127.5z" />
<glyph unicode="P" horiz-adv-x="1433" d="M20 -14q51 82 103.5 158.5t112.5 152.5q53 68 103 133.5t85 142.5q33 76 68.5 151t67.5 149.5t57.5 152.5t37.5 162h-172q-16 47 -33.5 94t-29.5 94q94 20 196 21q45 0 88.5 -4t76 -19.5t51 -49.5t18.5 -91q0 -45 -12.5 -88t-27.5 -84t-31.5 -83t-24.5 -85q35 37 83 90 t103 110.5t115.5 114t123 101.5t122 72.5t114.5 27.5q59 0 99 -25.5t64 -65.5t34 -90t10 -100q0 -94 -38 -213.5t-101.5 -232.5t-146.5 -204t-175 -128q-41 -16 -89 -25.5t-99 -14.5t-101.5 -7t-93.5 -2q-23 0 -42 24.5t-36.5 57.5t-31 65.5t-23.5 51.5q-53 -43 -85 -108.5 t-71 -121.5q-47 -61 -80.5 -128.5t-84.5 -123.5q-16 -4 -52 -10t-74 -13t-72 -12.5t-48 -5.5q-16 0 -29.5 1.5t-28.5 7.5zM662 508q96 0 177 6t175 16q47 6 88 22.5t76 51.5q37 37 77.5 96.5t73.5 126t54.5 133t21.5 119.5q0 31 -10.5 58.5t-34.5 48.5q-53 -14 -115.5 -56.5 t-130 -102.5t-134.5 -132t-127 -142.5t-110 -135t-81 -109.5z" />
<glyph unicode="Q" horiz-adv-x="1366" d="M20 -119q6 14 26 42t45.5 61.5t55 69.5t57 66t50 49t37.5 24q20 4 59 3t62 -1q29 0 58.5 2t57.5 10q205 70 367 196.5t291 292.5q55 72 94 168.5t39 188.5q0 70 -26.5 115.5t-70.5 74.5t-100.5 41t-115.5 12q-76 0 -154 -41t-143.5 -103t-114.5 -138t-70 -144 q-12 -41 -21 -87t-9 -89q0 -57 15 -100t44 -77t69 -59.5t89 -45.5q-63 -76 -140 -140q-66 37 -118 76t-88.5 86t-57 108.5t-20.5 141.5q0 39 7 75t17 72q16 61 32.5 122t49.5 116q113 188 280 302q164 112 386 112h8q100 0 183 -33t141.5 -91.5t91.5 -141t33 -183.5 q0 -123 -48.5 -239.5t-125 -219t-176 -184.5t-201.5 -135q-41 -20 -81 -34.5t-77 -39.5q16 -2 32.5 -2h32.5q100 0 201 12.5t201 12.5q16 0 31.5 -25.5t28 -59.5t20.5 -65.5t10 -46.5q-203 6 -401.5 8t-401.5 2q-72 0 -137.5 -19t-132 -44t-133 -47.5t-138.5 -26.5z" />
<glyph unicode="R" horiz-adv-x="1478" d="M20 0q12 37 53.5 102.5t91.5 136t99 135t78 99.5q125 156 210 327t144 359q6 20 6 41q0 23 -6 41q-31 10 -57 10q-27 0 -53.5 -4t-53.5 -4q-4 10 -12 36t-16 53.5t-14.5 52t-6.5 32.5q0 12 8.5 25.5t22.5 13.5q8 0 21 -8q70 0 145.5 -1t140.5 -17q49 -12 67 -54 q16 -37 15 -77v-9q0 -45 -12 -88t-28.5 -86t-33 -85t-26.5 -85q35 35 84 85t107.5 104.5t122 107.5t127 96t122.5 70t111 27q61 0 103 -28t67.5 -71t38 -96t12.5 -104q0 -131 -49.5 -249t-126.5 -222q-80 -109 -191.5 -173.5t-243.5 -86.5q41 -47 75 -99.5t63 -107.5 q10 -2 30 -2q25 0 48.5 2t48.5 2q41 0 69 -11q18 -49 39 -96t27 -100h-84h-109.5t-107.5 2t-76 8q-23 4 -35 29.5t-22 44.5q-43 84 -92.5 153.5t-118.5 133.5q-42 15 -87 15h-15q-9 -1 -18 -1q-43 0 -85 12q41 57 93 102.5t112 84.5q22 3 44 3q12 0 22 -1q32 -2 65 -2 q98 0 194.5 47t173 123.5t123.5 173t47 192.5q0 29 -8 54.5t-28 45.5q-10 4 -18.5 6.5t-18.5 2.5q-55 0 -130 -49.5t-152 -116t-143.5 -135t-103.5 -107.5q-82 -86 -169 -174t-152 -184q-12 -18 -34 -54t-48.5 -81.5t-56 -93.5t-58.5 -88t-53.5 -68.5t-38.5 -32.5 q-67 -23 -137 -32q-57 -7 -116 -7h-26z" />
<glyph unicode="S" horiz-adv-x="997" d="M-238 10q25 55 58 104.5t65 100.5l533 -2q31 0 70.5 5t74.5 19.5t60.5 39t25.5 65.5q0 37 -25.5 74t-62.5 75.5t-81 79.5t-82 86t-62.5 95.5t-24.5 105.5q0 35 10.5 69t26.5 64q59 102 157.5 186.5t216.5 143.5t244.5 92t243.5 33q72 0 108 -45q34 -43 34 -104v-7 q0 -61 -38 -138t-90.5 -154.5t-109.5 -147.5t-96 -115h-246q31 47 83 110.5t103.5 131t92.5 133.5t51 115h-21q-37 0 -91 -14.5t-113.5 -40t-119 -59.5t-106.5 -74t-76.5 -83t-29.5 -86q0 -31 23.5 -66.5t60.5 -74.5t79 -83t78.5 -90t61 -95t24.5 -101q0 -41 -13 -81.5 t-34.5 -79.5t-50.5 -72t-61 -53q-29 -18 -64 -29.5t-71.5 -18t-73.5 -7.5t-70 -1q-168 0 -336 -4q-112 -3 -224 -3z" />
<glyph unicode="T" horiz-adv-x="901" d="M20 1030q0 14 10.5 38t26 49.5t31.5 46t29 28.5q113 18 224.5 33.5t223.5 31.5q53 8 107.5 13.5t107.5 15.5q31 6 42.5 29.5t19.5 50.5t20 51.5t43 32.5q49 14 101.5 23.5t103.5 9.5q-6 -35 -17.5 -70t-23.5 -70q78 6 152.5 17.5t150.5 21.5l2 -18q0 -18 -7 -46 t-17.5 -56.5t-22.5 -54t-22 -38.5q-14 -16 -31 -16t-35 -6q-63 -6 -126.5 -12.5t-127.5 -12.5q-12 -6 -23.5 -13t-17.5 -19q-16 -31 -29.5 -70t-25.5 -74q-31 -78 -62.5 -153.5t-64.5 -153.5q-25 -53 -46.5 -108.5t-43.5 -110.5q-35 -86 -78 -170t-72 -174q-8 -23 -14 -43.5 t-35 -30.5q-51 -16 -109.5 -21.5t-111.5 -11.5q92 231 195.5 454.5t193.5 455.5q18 49 41 98t41 98q-76 -8 -164 -18t-178 -22.5t-177 -27t-161 -28.5q-8 10 -15.5 24.5t-7.5 26.5z" />
<glyph unicode="U" horiz-adv-x="1177" d="M20 240q2 80 29 164.5t60 158.5q59 131 120.5 259t102.5 265q10 35 10 62q0 29 -10 56.5t-33 45.5l-147 25q8 16 28.5 49t46 64.5t50 56t42.5 24.5q23 0 45.5 -8t43.5 -14q78 -25 129 -87.5t51 -148.5q0 -63 -25.5 -145t-64.5 -172t-83 -181t-83 -173t-64.5 -150.5 t-25.5 -111.5q-2 -27 17.5 -50.5t47.5 -23.5q31 0 73 20.5t84 50t78 60.5t58 53q25 25 56.5 60.5t63.5 75.5t59.5 80t41.5 71q33 68 60.5 136.5t55.5 136t59.5 134t72.5 131.5q10 16 21.5 39t23.5 45.5t28.5 40t35.5 23.5q23 8 55.5 15t67 13.5t68.5 10.5t58 4q6 0 13.5 -1 t15.5 -1q-16 -59 -44 -102.5t-56 -94.5q-16 -27 -27.5 -55.5t-25.5 -56.5q-41 -78 -85 -156t-94 -150q-43 -66 -84 -120t-63 -131q-18 -66 -34.5 -132.5t-16.5 -134.5q0 -25 28.5 -37t67.5 -16q31 -3 62 -3h15q38 1 56 1q-27 -51 -49.5 -102.5t-48.5 -100.5q-25 0 -49.5 -1 t-49.5 -1q-49 0 -92 4t-74.5 20.5t-50 50.5t-18.5 95q0 29 4 55.5t4 55.5q-45 -49 -97 -101.5t-110.5 -95.5t-124 -70.5t-137.5 -27.5q-51 0 -95 19.5t-77 52t-51.5 76.5t-18.5 96z" />
<glyph unicode="V" horiz-adv-x="784" d="M20 80q2 305 72 596t164 579q10 31 19.5 74t31.5 66q10 10 34 7t34 -3q29 0 55 3t55 3q10 0 21.5 -1t21.5 -3q-57 -166 -111.5 -333t-97.5 -337q-20 -86 -44.5 -171t-36.5 -173q53 29 96 77t84 93q170 190 320.5 391t281.5 418q10 16 20.5 25.5t30.5 9.5q53 0 106.5 -2 t104.5 -8q-18 -43 -47 -80t-53 -76q-172 -264 -359.5 -514t-421.5 -467q-39 -35 -77.5 -73t-79.5 -73.5t-86 -65.5t-95 -48q-10 20 -26.5 40.5t-16.5 45.5z" />
<glyph unicode="W" horiz-adv-x="1327" d="M20 117q0 113 26 265.5t63.5 313t83 311t83.5 259.5q12 31 19.5 64.5t32.5 58.5q65 24 134 24h5q41 0 74 -8q-106 -260 -177 -528.5t-114 -544.5q47 27 107.5 86t122 128.5t115.5 137.5t91 115q33 43 55.5 91t39 97t30.5 100.5t31 102.5l76 221h212q-51 -160 -96 -318.5 t-86 -320.5q-25 -94 -51.5 -186t-32.5 -191q49 41 117 116t144.5 168t154.5 197.5t146.5 204t123 185.5t80.5 143q61 0 123 -2t123 -8q-33 -76 -81 -142.5t-93 -134.5q-86 -133 -177 -260t-196 -248q-35 -43 -71.5 -81.5t-73.5 -79.5q-39 -43 -104.5 -115t-139.5 -142.5 t-146.5 -125t-127.5 -66.5q-23 31 -32 66.5t-9 72.5q2 98 25.5 196.5t33.5 197.5q-49 -43 -85 -96.5t-79 -100.5q-16 -18 -49 -50t-75 -68t-89 -73.5t-91 -67.5t-81 -49.5t-59 -19.5q-4 0 -8.5 1t-8.5 1q-23 18 -31 46t-8 57z" />
<glyph unicode="X" horiz-adv-x="1376" d="M20 0q18 53 71.5 129t127.5 163t159 177t168 172t154.5 149.5t118.5 108.5q-31 86 -68.5 171t-78.5 165q-23 47 -48.5 91t-39.5 97q57 0 114.5 -4t114.5 -4q47 -92 91 -184t87 -187q47 18 88 49t84 58q68 43 138.5 84t144.5 74.5t150.5 58.5t158.5 35q-2 -20 -6 -45 t-9 -51.5t-12.5 -50t-15.5 -42.5q-16 -29 -30.5 -33.5t-43.5 -15.5q-154 -51 -285.5 -137t-262.5 -180q25 -98 59.5 -200.5t67 -207t59.5 -208t39 -203.5h-221q-23 174 -73 340t-106 331q-55 -43 -134 -116.5t-159.5 -156.5t-152.5 -166t-113 -140q-23 -31 -47 -62.5 t-67 -42.5q-53 -10 -110.5 -13t-111.5 -3z" />
<glyph unicode="Y" horiz-adv-x="989" d="M23 242q0 61 33.5 158.5t78.5 202t92 201.5t76 163q23 57 50.5 113.5t39.5 115.5q-53 18 -109.5 21.5t-111.5 3.5q14 55 40.5 104t51.5 100q55 -4 118.5 -5t117 -16t88.5 -54t35 -119q0 -25 -16.5 -76t-42 -116.5t-57.5 -139.5t-62.5 -141.5t-56.5 -122.5t-38 -86 q-10 -23 -28.5 -61.5t-37 -80.5t-31.5 -80t-13 -59q0 -18 11 -34.5t32 -16.5q8 0 16 4q9 -2 19 -2q36 0 78 23q55 30 113 81.5t114.5 117t104.5 132t83 125t49 95.5q45 119 99.5 230.5t105.5 227.5q25 51 53.5 64.5t79.5 23.5q63 16 121.5 38t124.5 28q-33 -80 -84 -173 t-108.5 -187.5t-116 -184.5t-105.5 -166q-25 -41 -43 -85t-33.5 -91t-30 -94t-32.5 -90q-35 -80 -71 -157t-70 -154q-78 -172 -174.5 -315.5t-204.5 -297.5q-59 0 -118.5 5t-119.5 14q41 61 90 117.5t90 117.5q98 143 186.5 284.5t153.5 305.5q-49 -41 -95 -83t-96 -76 t-107.5 -55.5t-127.5 -21.5q-96 2 -151 66q-53 60 -53 148v10z" />
<glyph unicode="Z" horiz-adv-x="1316" d="M20 -416q0 86 52.5 159t127 133.5t157.5 108.5t147 85q51 29 105.5 43t107.5 37q-4 35 -13.5 68.5t-9.5 68.5q0 31 9.5 48t31.5 36q162 137 314.5 284.5t269.5 327.5q29 45 61.5 91t32.5 102q0 53 -26.5 69.5t-73.5 16.5q-53 0 -109.5 -12.5t-114 -31t-111.5 -42 t-101 -43.5q-147 -66 -273.5 -162.5t-236.5 -212.5v13q-1 42 -11 84q-12 48 -12 99q0 33 8 58q100 82 220 162.5t251 144t268.5 101.5t272.5 38q51 0 101.5 -8t88 -31.5t60 -62.5t22.5 -101q0 -63 -32.5 -146t-87 -172t-122 -179t-138 -171t-136 -145.5t-114.5 -103.5 q-25 -18 -48.5 -37.5t-42.5 -44.5l-2 -57q80 13 160 27q70 13 142 12h20q18 0 35.5 -26t33 -58.5t26.5 -65.5t18 -47q-98 0 -196.5 -3t-197.5 -28q2 -23 3 -44t1 -44q0 -68 -13 -130t-58 -118q-51 -66 -123 -114.5t-154 -81.5t-169 -49.5t-167 -16.5q-41 0 -86 8.5t-81.5 28 t-61.5 52t-25 83.5zM231 -373q0 -8 6.5 -14t10.5 -10q25 -6 51 -6q43 0 111.5 16t137 45t125 66.5t77.5 80.5q14 29 14 64q0 23 -3 42t-3 42q-94 -23 -184.5 -69t-176.5 -93q-47 -27 -95 -70t-71 -94z" />
<glyph unicode="[" horiz-adv-x="485" d="M20 -518q0 225 52.5 450.5t140.5 442.5t202.5 421.5t239.5 387.5q63 92 127 182t144 170q6 2 20 2q33 0 64.5 -13.5t62.5 -23.5q-57 -80 -118.5 -157.5t-118.5 -159.5q-33 -47 -73 -105.5t-79 -121t-75 -123t-60 -109.5q-82 -168 -147.5 -320.5t-110.5 -306t-69.5 -317.5 t-24.5 -354q0 -12 -4.5 -24.5t-14.5 -20.5q-41 6 -80 14t-75 26q-2 16 -2.5 31t-0.5 29z" />
<glyph unicode="\" horiz-adv-x="714" d="M20.5 1356.5q-0.5 9.5 5 14.5t15.5 7t25 8q25 10 49 23.5t59 13.5q8 0 17.5 -1t19.5 -3q45 -158 114.5 -322.5t125.5 -324.5q66 -188 139.5 -377.5t150.5 -382.5h-213q-39 66 -57 122t-41 116q-70 193 -142.5 384t-144.5 384q-29 78 -61.5 157.5t-54.5 153.5 q-6 18 -6.5 27.5z" />
<glyph unicode="]" horiz-adv-x="485" d="M-313 -582q57 80 118.5 158t118.5 160q33 47 73 105.5t79 121t74.5 122.5t60.5 110q82 168 147.5 320.5t110.5 306t69.5 317.5t24.5 354q0 12 4 24.5t15 20.5q41 -6 79.5 -14t75.5 -27q2 -16 2 -30.5v-28.5q0 -225 -52 -450.5t-140 -442.5t-203 -422t-240 -387 q-63 -92 -126.5 -182t-143.5 -170q-6 -2 -20 -2q-33 0 -65 13t-62 23z" />
<glyph unicode="^" horiz-adv-x="550" d="M-27 520l271 484l8 6h289l4 -6l41 -484l-101 -2l-108 332l-295 -332z" />
<glyph unicode="`" horiz-adv-x="782" d="M123 1004l227 -5l187 -286l-86 -2z" />
<glyph unicode="a" horiz-adv-x="796" d="M20 184q0 45 23 95.5t56.5 98.5t72.5 89t72 70q51 43 116.5 70.5t136 42t142 19.5t137.5 5q-18 -41 -39.5 -82t-42.5 -82q-94 -6 -180 -27.5t-164 -76.5q-59 -43 -106 -98.5t-60 -131.5q16 0 34 -1t36 -1q66 0 95.5 26.5t45 64.5t27.5 83t43 82q43 4 86 6t86 8 q-8 -31 -21.5 -61.5t-25.5 -61t-20.5 -63.5t-8.5 -65v-19q41 -6 82 -7t82 -1q-12 -41 -29.5 -79t-36.5 -77h-73q-35 0 -79 5t-77 22q-10 6 -16 10t-21 4q-20 0 -39.5 -9t-38.5 -13q-29 -8 -60.5 -11.5t-61.5 -3.5q-20 0 -45 1t-46 5q-25 6 -41 24.5t-25 43.5t-12.5 50.5 t-3.5 45.5z" />
<glyph unicode="b" horiz-adv-x="749" d="M20 197q0 76 21.5 140t48.5 132q74 193 149.5 379t163.5 373q14 29 27.5 50t46.5 32q41 12 82 19t82 13q-31 -70 -70 -160t-76.5 -177t-69.5 -159.5t-48 -109.5q-18 -41 -49 -110.5t-60.5 -146.5t-51 -147.5t-21.5 -109.5q0 -18 19 -28.5t36 -10.5q29 0 58.5 23.5 t55 56.5t44 68.5t26.5 60.5q-25 6 -54.5 12t-35.5 37q6 33 30.5 73t59.5 74.5t75 58.5t75 24h14q6 -29 15.5 -53.5t17.5 -53.5q25 -6 50.5 -10t47.5 -15q-16 -61 -34.5 -85.5t-37 -35t-35 -15.5t-24.5 -27q-25 -66 -63.5 -131.5t-91 -117.5t-118 -86t-141.5 -34 q-98 0 -131 54.5t-33 142.5z" />
<glyph unicode="c" horiz-adv-x="708" d="M20 197q0 16 3 24q14 86 64 171t123 150.5t160 106.5t179 41q61 0 100 -31.5t39 -97.5q0 -20 -3 -48t-12 -54.5t-23.5 -48t-35.5 -27.5q-29 -10 -55.5 -18.5t-56.5 -8.5h-13.5t-13.5 2q20 41 34.5 83t14.5 89q-55 0 -113.5 -33.5t-106.5 -86t-81 -113.5t-37 -117 q84 -23 168 -23q14 1 28 1q98 4 198 4q-12 -33 -25.5 -62.5t-32.5 -60.5q-16 -27 -42.5 -30t-55.5 -3q-57 0 -128 -1h-9q-65 -1 -123 13q-62 14 -103 54.5t-41 124.5z" />
<glyph unicode="d" horiz-adv-x="821" d="M-59 170q0 35 9 74t23.5 76.5t34 73.5t41.5 63q66 82 164 137t197 82q39 10 78.5 11t76.5 13q29 63 57.5 134t58.5 142t62.5 137.5t69.5 125.5q14 23 45 38t67 25.5t72.5 16.5t61.5 10q-12 -72 -41 -134t-57 -128q-57 -129 -118 -252t-122 -248q-12 -23 -23.5 -64.5 t-21.5 -87.5t-16.5 -89t-6.5 -68q0 -23 2 -43t15 -39q37 -8 73.5 -10t73.5 -8q-12 -39 -29.5 -76t-35.5 -72h-99q-74 0 -106.5 8.5t-43.5 29t-13.5 56t-16.5 89.5q-53 -47 -80.5 -81t-57.5 -57.5t-73 -35t-123 -11.5q-18 0 -55 1t-53 5q-23 6 -39.5 23.5t-27.5 40t-17 47.5 t-6 45zM127 197.5q0 -7.5 2 -13.5q27 -6 53 -6q88 0 152 64q57 59 111.5 127.5t70.5 150.5q-66 0 -134.5 -20.5t-125.5 -59.5t-93 -96t-36 -133v-13.5z" />
<glyph unicode="e" horiz-adv-x="743" d="M72 213q0 92 39 176t104.5 149.5t150.5 104.5t175 39q33 0 64.5 -7t58 -22.5t43 -42t16.5 -63.5q0 -74 -42 -134.5t-103.5 -107.5t-133 -82t-129.5 -57q76 -6 152 -8t151 -2q-6 -29 -11 -54.5t-16 -47t-31.5 -34t-55.5 -12.5q-25 0 -64 -1t-80 -1h-77.5t-57.5 4 q-80 10 -116.5 70.5t-36.5 132.5zM209 240q49 25 101 54.5t100.5 65t84 79.5t52.5 102q-57 0 -109.5 -30t-96.5 -74t-78 -97t-54 -100z" />
<glyph unicode="f" horiz-adv-x="747" d="M-115 -459q0 131 41 254t95.5 240t109.5 231.5t84 233.5q-35 18 -73 31.5t-74 25.5q16 35 39.5 61.5t50.5 53.5q25 7 50 7q10 0 20 -1q36 -4 71 -10q33 80 72 155.5t75.5 151.5t71.5 151.5t62 155.5q6 25 30 35q41 16 89.5 18.5t91.5 14.5q-29 -90 -65 -176.5t-74 -171 t-77.5 -169.5t-72.5 -171q80 0 159.5 -4.5t159.5 -4.5q-16 -41 -34.5 -78.5t-38.5 -76.5q-70 6 -139.5 8t-139.5 8q35 -41 67.5 -81t58.5 -83t41 -92t15 -104q0 -68 -26.5 -152t-71.5 -172t-105.5 -172t-130 -149.5t-144.5 -105.5t-146 -40q-39 0 -66 15.5t-44 40t-24.5 56 t-7.5 66.5zM61 -451q0 -6 1 -12t1 -12q70 25 145 101.5t136.5 172t101 195.5t39.5 172q0 66 -31.5 122t-74.5 103q-37 -84 -90 -198.5t-104.5 -232.5t-87.5 -227.5t-36 -183.5z" />
<glyph unicode="g" horiz-adv-x="776" d="M-84 -674q4 31 10 77t23 71q16 25 45 35t53 22q45 25 86 60.5t76 78.5t62.5 91.5t47.5 95.5q18 47 40 93t34 95q-45 -23 -92 -37t-96 -14q-82 0 -124 48t-42 128q0 82 35 148.5t84 127.5q111 137 257 189.5t318 52.5q61 0 113 -14q-25 -37 -49.5 -74t-48.5 -72 q-18 -12 -43 -11t-62 -5q-115 0 -221.5 -56.5t-165.5 -156.5q-12 -23 -23.5 -47.5t-11.5 -48.5q0 -20 8 -35q23 -16 52 -16q45 0 83.5 26.5t71.5 65.5t57.5 83t41.5 79q10 23 36.5 36t57 20t62.5 9t54 2q10 0 17.5 -1t17.5 -3q-14 -41 -35.5 -79l-43 -76t-43 -75.5 t-35.5 -78.5q-27 -74 -62 -164t-79 -182.5t-99 -180.5t-122.5 -156.5t-148.5 -109.5t-178 -41h-18z" />
<glyph unicode="h" horiz-adv-x="727" d="M-113 2q125 260 231.5 524.5t231.5 524.5q29 59 49.5 123.5t57.5 119.5q43 25 92 26t96 7q-43 -123 -98 -241.5t-109 -239.5q-43 -100 -92 -195.5t-88 -197.5q39 33 78 68.5t82 65t91 49t103 19.5q43 0 63.5 -40t20.5 -78q0 -25 -18.5 -74t-43 -106.5t-49 -109.5 t-34.5 -83h156q-18 -39 -34 -78l-32 -78q-84 0 -138 -4t-102 -4q-27 0 -46 25.5t-19 50.5q0 31 19.5 80t45 104t51 108.5t35.5 90.5q-47 -10 -99 -48t-101 -87.5t-92 -101.5t-70 -89q-18 -25 -32.5 -53.5t-33.5 -52.5q-41 -12 -85 -15.5t-87 -9.5z" />
<glyph unicode="i" horiz-adv-x="428" d="M20 109q0 61 27 121.5t51 113.5q35 74 65.5 148.5t65.5 146.5q45 6 90.5 7t90.5 7q-47 -121 -105.5 -242.5t-97.5 -246.5q23 -4 51 -5q8 0 18 1q38 2 72 2q-12 -35 -32.5 -82t-39.5 -80q-10 -2 -19 -2q-11 0 -20 3q-16 5 -38 5q-33 0 -65 1t-57.5 10.5t-41 30t-15.5 61.5 zM287 930q0 37 20.5 81t54.5 60q18 8 40 9t42 7q55 -4 93 -48t38 -97q0 -61 -41.5 -102t-103.5 -41q-59 0 -101 33.5t-42 97.5z" />
<glyph unicode="j" horiz-adv-x="624" d="M-274 -623q27 94 73 172q14 23 34 38.5t41.5 27.5t42 24.5t38.5 30.5q31 31 73 107t84 163t75.5 168.5t48.5 127.5q-47 -20 -92.5 -45t-96.5 -37q12 41 28.5 87t39.5 85q18 33 48 51t58 39q66 43 115 97t106 108q14 14 39 24t51.5 18.5t52.5 14.5t46 14 q-6 -29 -17.5 -54.5t-23.5 -51.5q-78 -158 -153 -316.5t-144 -320.5q-39 -90 -75 -168t-82 -143.5t-108.5 -122t-154.5 -105.5q-35 -18 -72 -25.5t-75 -7.5zM508 981q0 63 40 101t101 38q59 0 97 -38t38 -95q0 -25 -10 -51.5t-27.5 -48t-41 -35.5t-50.5 -14q-59 0 -103 42 t-44 101z" />
<glyph unicode="k" horiz-adv-x="770" d="M-45 10q12 41 24.5 75t30.5 75q41 92 83 180t83 180q86 193 169 382.5t169 379.5q41 33 93 37t104 10q-18 -74 -52 -144.5t-63 -142.5q-55 -147 -124 -285.5t-124 -285.5q68 43 130.5 94t131.5 92l13 2q12 0 32.5 -9t42 -22.5t37 -27.5t15.5 -25q0 -14 -15.5 -24 t-25.5 -16q-68 -41 -130.5 -89.5t-123.5 -97.5q0 -14 -1 -27.5t-1 -27.5q0 -35 8 -67.5t33 -57.5q38 -12 78 -12h11q46 2 91 2q8 -10 12 -25q-12 -35 -29.5 -65.5t-31.5 -65.5q-29 4 -58.5 2t-58.5 -2q-35 0 -77 7t-69 36q-20 20 -34.5 52t-23.5 68t-14 70.5t-7 63.5 q-45 -61 -80 -140t-66 -149h-182z" />
<glyph unicode="l" horiz-adv-x="438" d="M20 115q0 41 14.5 84t31.5 82q96 248 205.5 511t217.5 504q12 27 37 33q19 4 40 5q6 0 14 -1q30 -2 59.5 -6t54.5 2q-111 -293 -236.5 -580.5t-252.5 -574.5q47 -6 94 -10q19 -2 38 -2l56 4q-10 -37 -28.5 -78t-45.5 -70q-16 -18 -34.5 -14t-38.5 -2q-27 2 -55.5 2 t-56.5 3t-54.5 12.5t-46.5 31.5q-12 31 -13 64z" />
<glyph unicode="m" horiz-adv-x="1175" d="M-45 8q6 29 23.5 78t42 110.5t53 127t56.5 127t51.5 110.5t37.5 78q53 12 106.5 23.5t106.5 17.5q-23 -47 -46.5 -92t-35.5 -96q31 25 72 55.5t85 57t89 45t86 18.5q47 0 66.5 -27t19.5 -72q0 -20 -5 -39.5t-11 -40.5q35 27 71.5 55.5t76.5 53.5t82 40t89 15 q45 0 64.5 -40t19.5 -76q0 -37 -18.5 -85.5t-43 -99.5t-48 -101t-35.5 -89h135q-12 -37 -27.5 -79t-32.5 -77h-221q-25 0 -50.5 27.5t-25.5 52.5q0 18 21.5 67.5t48.5 109t51.5 118.5t30.5 100q-72 -37 -131 -90t-110.5 -116.5t-95.5 -131t-83 -135.5h-180 q55 117 110.5 232.5t88.5 240.5q-121 -59 -213.5 -166.5t-157.5 -224.5q-8 -14 -21.5 -44t-29.5 -36q-10 -4 -33 -5q-12 0 -24 -1q-12 0 -24 1q-24 1 -46.5 2t-34.5 1z" />
<glyph unicode="n" horiz-adv-x="780" d="M-53 4q47 127 107.5 246t107.5 246q14 39 30.5 74.5t34.5 72.5l197 25q-18 -55 -48 -105.5t-42 -107.5l67.5 57.5t87 66t91.5 55t82 23.5q41 0 69.5 -30.5t28.5 -71.5q0 -43 -18.5 -94t-43 -102.5t-50 -102.5t-40.5 -94h142q-6 -39 -21.5 -82t-36.5 -78q-12 1 -31 1 t-43 -1q-16 -1 -33 -1l-65 3q-49 4 -86 21.5t-37 58.5q0 27 19.5 77t46 106.5t50.5 110.5t34 91q-45 -6 -100.5 -52t-107.5 -106.5t-96 -123t-67 -101.5q-4 -6 -7 -18.5t-6 -24.5t-8 -21.5t-14 -11.5q-16 -6 -41.5 -7t-53.5 -1t-54.5 1t-44.5 1z" />
<glyph unicode="o" horiz-adv-x="702" d="M20 236q0 76 30 155.5t82 144t123 105.5t153 41q90 0 142 -41t81 -125q27 -6 53.5 -7t52.5 -1q-6 -35 -13 -66.5t-19 -64.5q-20 -14 -46 -23.5t-36 -34.5q-29 -61 -54.5 -121.5t-79.5 -107.5q-41 -35 -100 -62.5t-113 -27.5q-117 0 -186.5 56.5t-69.5 179.5zM186 270 q0 -47 17.5 -78.5t70.5 -31.5q39 0 68 17.5t52.5 45t41 59t31.5 62.5q-35 18 -53.5 34.5t-26.5 37t-9 47t-1 61.5q-82 -25 -136.5 -96.5t-54.5 -157.5z" />
<glyph unicode="p" horiz-adv-x="946" d="M-303 -614q35 98 76 190t82 186q41 92 87 177.5t76 183.5q41 131 62.5 258t21.5 266h19q37 0 72.5 3t72.5 3q6 -16 8 -34.5t2 -36.5q0 -41 -7 -79t-11 -79q39 43 90 90t108.5 87t120 66.5t123.5 26.5q84 0 138.5 -55t54.5 -137q0 -49 -18.5 -97.5t-48 -92.5t-65.5 -81.5 t-71 -68.5h18q31 0 68 5q25 4 48 4q20 0 38 -3q-16 -41 -33.5 -81t-42.5 -77q-135 -4 -269 -8t-269 -4q10 25 20.5 49.5t22.5 46t31.5 37.5t48.5 23q66 14 128 49t111 84t80 110.5t35 132.5h-14q-66 0 -126.5 -39.5t-105.5 -82.5q-104 -98 -170.5 -181.5t-114 -168.5 t-89.5 -181t-97 -221q-25 -57 -46 -115.5t-52 -113.5q-47 -18 -98.5 -28.5t-98.5 -29.5q0 6 -6 9.5t-10 7.5z" />
<glyph unicode="q" horiz-adv-x="843" d="M20 178q0 47 15.5 96.5t42.5 90.5q51 80 123.5 141t157.5 104t179.5 65.5t186.5 22.5q20 0 54 -6t44 -26q-12 -39 -36.5 -71t-53.5 -60q-59 -12 -115.5 -12.5t-113.5 -20.5q-45 -18 -98.5 -48t-99.5 -70t-76.5 -89t-30.5 -102q0 -16 15 -23.5t28 -7.5q43 0 74.5 24.5 t57 57t47 66.5t42.5 52q14 12 39.5 21.5t54.5 16t56.5 11.5t45.5 9q-25 -68 -60.5 -132.5t-63.5 -129.5q-10 -23 -33 -70t-51.5 -108.5t-59.5 -127t-57.5 -124t-43 -101.5t-16.5 -55t4.5 -25.5l8.5 -25.5q57 27 101 69.5t75 97t46 115t15 121.5q0 27 -4 50.5t-4 48.5 q0 41 31 75.5t53 67.5h213q-12 -41 -32.5 -79t-41.5 -77h-73q4 -35 6 -70.5t2 -70.5q0 -86 -38 -176t-102.5 -163t-148.5 -119t-174 -46q-29 0 -50.5 13.5t-35.5 34t-21.5 47t-7.5 51.5q0 47 24.5 119.5t58.5 149.5t69 148.5t57 116.5q-33 -14 -65.5 -27.5t-67.5 -13.5 q-78 0 -115 51t-37 123z" />
<glyph unicode="r" horiz-adv-x="649" d="M49 403q6 18 27.5 72.5t46 114t48.5 109t34 55.5h131q-6 -35 -19.5 -63.5t-23.5 -61.5q94 0 189.5 2t189.5 8q-10 -35 -20.5 -67.5t-28.5 -63.5q-35 -20 -71 -35.5t-60 -46.5q-39 -47 -77 -101.5t-40 -119.5q-6 -20 23.5 -28.5t70.5 -11.5q31 -2 61 -3l21 1q41 1 53 1 q-12 -41 -32.5 -79t-41.5 -77q-21 2 -42 2q-16 0 -32 -1q-38 -3 -77 -3q-106 0 -149.5 41t-43.5 150q0 29 21.5 71.5t51.5 85.5t60.5 83t49.5 63q-16 0 -33 1t-33 1q-33 0 -50 -6.5t-27.5 -19.5t-17.5 -31.5t-20 -43.5q-35 2 -69.5 2h-69.5z" />
<glyph unicode="s" horiz-adv-x="567" d="M-53 0q4 12 11 36.5t17.5 50.5t21.5 45.5t23 23.5q10 2 36 4t56.5 3t61.5 2t51 5q37 6 51.5 25.5t30.5 48.5q12 23 18.5 41t6.5 45q0 33 -7.5 63.5t-15.5 63.5q-31 -25 -56.5 -54.5t-49.5 -60.5q-39 6 -76 17.5t-72 25.5q51 61 100.5 119.5t96.5 124.5q8 12 22.5 31.5 t31 38t32.5 34t29 19.5q29 10 71.5 14t71.5 4h18.5t18.5 -2q-25 -43 -60.5 -80t-54.5 -84q14 -72 35.5 -143.5t21.5 -147.5q0 -16 -2 -42.5t-8 -43.5q-12 -31 -32.5 -65.5t-47 -65t-59.5 -53.5t-66 -29q-62 -13 -129 -13q-17 0 -33 1q-34 2 -67 2q-50 0 -98 -4z" />
<glyph unicode="t" horiz-adv-x="577" d="M20 115q0 29 16.5 76t39 99t45 100t35.5 81q-29 6 -57.5 8t-57.5 2q23 76 65 154h123q39 57 57.5 123t57.5 123q42 11 83 11h7h13q39 0 79 5q-20 -66 -51 -127t-57 -127q35 -6 69.5 -8t69.5 -8q-12 -39 -27.5 -76t-37.5 -72q-23 -6 -44.5 -4t-41.5 2q-27 0 -43.5 -7 t-26.5 -32q-31 -66 -61.5 -133t-55.5 -137q49 -6 98.5 -8t98.5 -8q-6 -43 -27.5 -82t-46.5 -74q-57 0 -118.5 3t-119.5 13q-35 6 -59.5 36t-24.5 67z" />
<glyph unicode="u" horiz-adv-x="782" d="M20 100q0 18 12.5 59.5t31 92.5t41 108.5t45 109.5t42 93t29.5 62q41 23 87 24.5t93 7.5q-18 -66 -44.5 -129t-52 -126.5t-49.5 -128t-36 -132.5q47 20 84 45t72 62q18 18 26.5 37.5t14.5 39t11 39t15 39.5q8 18 23.5 47t31 60t32 58.5t28.5 39.5q16 18 42 26.5 t54.5 12.5t57 5t51.5 5q-12 -53 -34.5 -105t-47.5 -99q-16 -31 -35.5 -57.5t-37 -54.5t-29 -59.5t-11.5 -70.5q0 -27 20.5 -38t49.5 -14t58.5 -2t47.5 1q-10 -41 -24 -80t-33 -76q-50 0 -104 -1h-9q-49 0 -92 9q-31 6 -50 34t-40 48q-31 -14 -58.5 -31.5t-55 -34 t-58.5 -27.5t-65 -11q-20 0 -44 9t-43.5 24.5t-33 36t-13.5 42.5z" />
<glyph unicode="v" horiz-adv-x="643" d="M20 238q1 199 89 385q45 12 90 19t90 13q-16 -47 -36 -99t-37 -106.5t-28.5 -107.5t-11.5 -104q0 -31 12 -58q47 35 98.5 86t67.5 111q4 16 1 30.5t-3 30.5q0 25 30 62t72 71.5t84 59t66 24.5q23 0 28 -15t13 -33.5t26.5 -35t67.5 -16.5q-12 -37 -25.5 -75t-31.5 -72 q-16 -4 -33.5 -2t-34.5 2q-10 0 -20 -2.5t-19 -6.5q-18 -10 -38.5 -35.5t-43 -54t-44 -57.5t-39.5 -47q-39 -37 -76 -73t-77 -66.5t-85 -54t-98 -36.5q-20 25 -30.5 58t-15.5 67.5t-6.5 70.5t-1.5 67z" />
<glyph unicode="w" horiz-adv-x="991" d="M20 221q0 104 29 206.5t64 201.5l180 24q-12 -33 -31.5 -88t-37 -114.5t-31 -114.5t-13.5 -86q0 -33 13 -64q31 27 59.5 51.5t53 52t42 59.5t27.5 75q10 49 28.5 100t45.5 94q41 23 87 29t93 12q-39 -104 -75 -209.5t-36 -218.5v-23t2 -24q57 37 104.5 86t77.5 111 q-4 18 -10 35.5t-6 36.5q0 14 4 23t12 20q25 29 54.5 57.5t65.5 52t74 38.5t77 15q0 -23 4 -45t4 -45q25 -6 49.5 -13t48.5 -13q-18 -31 -31.5 -65t-33.5 -64q-18 -4 -37 -4t-35 -1t-31.5 -9.5t-27.5 -26.5q-25 -37 -78 -102.5t-117.5 -129t-129 -110.5t-109.5 -47 q-31 0 -47.5 17t-26.5 42t-15.5 52.5t-11.5 49.5q-29 -16 -55.5 -41.5t-54 -50t-57 -42t-66.5 -17.5q-35 0 -54.5 25.5t-28.5 62.5t-10.5 76t-1.5 63z" />
<glyph unicode="x" horiz-adv-x="864" d="M20 10q35 37 76 71t82 65.5t81 66.5t75 76q-18 92 -44 183t-38 185q41 -6 80 -10t76 -22q6 0 7 -6.5t1 -10.5q16 -47 26.5 -94t22.5 -94q57 43 99 93t89 103q18 23 44 30t55 7q34 0 66 -5q18 -3 36 -3q15 0 29 2q-68 -109 -160 -195.5t-178 -179.5q-14 -18 -15 -32 q0 -20 13.5 -41t34.5 -25q45 -10 98 -10h98q-10 -45 -32.5 -85t-49.5 -79q-16 0 -45 1t-60.5 1t-59 2t-40.5 6q-14 4 -25 17.5t-22.5 30t-24 30.5t-26.5 21q-35 -18 -59.5 -50t-55.5 -57q-18 2 -37.5 3t-37.5 1q-45 0 -89 4q-22 2 -44.5 2t-45.5 -2z" />
<glyph unicode="y" horiz-adv-x="776" d="M-82 -655q8 18 21.5 42.5t28 51t29.5 50.5t28 36q18 16 38.5 28.5t43 22.5t43 23.5t38.5 31.5q43 47 73 101.5t51.5 112t39 118t35.5 119.5q-23 -10 -49.5 -25.5t-55 -30t-56 -24.5t-52.5 -10q-12 0 -28.5 7t-33 17.5t-28.5 23.5t-16 26q-4 10 -5.5 30.5t-1.5 30.5 q0 41 15.5 105.5t38 131t50 126t52.5 92.5q51 25 103.5 46t109.5 27q-49 -123 -103.5 -242.5t-86.5 -248.5q53 12 97 51t85 72q35 27 55.5 74t36.5 94t34.5 87t53.5 54q53 23 109.5 34t111.5 23q-20 -53 -47.5 -99t-56.5 -90t-55.5 -86t-45.5 -85q-18 -45 -30.5 -95.5 t-28.5 -97.5q-16 -57 -36.5 -112.5t-37.5 -112.5q-27 -90 -62.5 -165t-86.5 -152q-41 -61 -98.5 -101.5t-122.5 -70.5q-47 -23 -95.5 -32t-101.5 -9z" />
<glyph unicode="z" horiz-adv-x="552" d="M-94 -625q47 63 101 121t108.5 113t104.5 113.5t89 125.5q12 23 22.5 64t10.5 65q0 23 -8 42.5t-25 33.5q-16 -8 -31.5 -20.5t-31.5 -22.5q-46 -6 -94 -8h-24q-36 0 -73 4q29 35 82 95.5t104.5 127t89.5 132t38 110.5q0 16 -13.5 25.5t-27.5 15.5q-74 -4 -145.5 -21.5 t-141.5 -41.5q6 51 29.5 95t52.5 85q12 8 45 14t69.5 10t70.5 6.5t52 2.5q92 0 132 -42t40 -133q0 -43 -12 -81.5t-29.5 -75.5t-38 -73t-36.5 -73q31 -37 64.5 -76.5t33.5 -91.5q0 -96 -34 -177t-86 -151.5t-114.5 -135t-119.5 -127.5q-29 -33 -56.5 -43.5t-70.5 -10.5 q-31 0 -63 4q-16 2 -32 2t-32 -2z" />
<glyph unicode="{" horiz-adv-x="485" d="M20 -518q0 225 52.5 450.5t140.5 442.5t202.5 421.5t239.5 387.5q63 92 127 182t144 170q6 2 20 2q33 0 64.5 -13.5t62.5 -23.5q-57 -80 -118.5 -157.5t-118.5 -159.5q-33 -47 -73 -105.5t-79 -121t-75 -123t-60 -109.5q-82 -168 -147.5 -320.5t-110.5 -306t-69.5 -317.5 t-24.5 -354q0 -12 -4.5 -24.5t-14.5 -20.5q-41 6 -80 14t-75 26q-2 16 -2.5 31t-0.5 29z" />
<glyph unicode="|" horiz-adv-x="616" d="M20 12q12 66 38 122t53 116q84 193 162.5 384t160.5 384q35 78 64.5 157.5t66.5 153.5q10 18 17.5 27.5t15.5 14.5t20.5 7t30.5 8q35 10 69.5 23.5t69.5 13.5q12 0 33 -4q-80 -158 -141.5 -322.5t-132.5 -324.5q-84 -188 -162 -377.5t-152 -382.5h-213z" />
<glyph unicode="}" horiz-adv-x="485" d="M-313 -582q57 80 118.5 158t118.5 160q33 47 73 105.5t79 121t74.5 122.5t60.5 110q82 168 147.5 320.5t110.5 306t69.5 317.5t24.5 354q0 12 4 24.5t15 20.5q41 -6 79.5 -14t75.5 -27q2 -16 2 -30.5v-28.5q0 -225 -52 -450.5t-140 -442.5t-203 -422t-240 -387 q-63 -92 -126.5 -182t-143.5 -170q-6 -2 -20 -2q-33 0 -65 13t-62 23z" />
<glyph unicode="&#xa8;" horiz-adv-x="761" d="M246 971q0 53 30.5 87t85.5 34t87 -36t32 -89q0 -57 -35.5 -87t-91.5 -30q-53 0 -80.5 34t-27.5 87zM563 973q0 47 35 83t82 36q55 0 87 -38t32 -91t-34 -83t-87 -30q-49 0 -82 37t-33 86z" />
<glyph unicode="&#xab;" horiz-adv-x="851" d="M20 317q6 33 40 59.5t59 47.5q72 57 136 114.5t134 114.5l90 -90q-74 -55 -143.5 -114.5t-142.5 -114.5q27 -35 62.5 -61.5t69 -54.5t64.5 -58.5t49 -71.5q-18 -14 -41.5 -27.5t-48.5 -13.5q-20 0 -41 16q-72 63 -140.5 129t-146.5 125zM356 326v24q98 68 193.5 140.5 t183.5 154.5q23 -16 49.5 -32.5t48.5 -32.5q-66 -72 -139.5 -130.5t-154.5 -107.5q55 -61 121.5 -111.5t115.5 -117.5q-16 -23 -37.5 -45.5t-52.5 -28.5q-29 12 -52.5 39.5t-45.5 50.5q-53 59 -108.5 105.5t-121.5 91.5z" />
<glyph unicode="&#xad;" d="M178 473l66 172h600l-66 -172h-600z" />
<glyph unicode="&#xb4;" horiz-adv-x="782" d="M614 713l187 286l227 5l-328 -293z" />
<glyph unicode="&#xb8;" horiz-adv-x="567" d="M14 -352q4 8 11.5 24.5t15.5 35t17.5 32.5t19.5 16q23 6 47.5 3t43.5 -1t32.5 16.5t13.5 55.5q0 20 -11 36.5t-24.5 29t-25 20.5t-11.5 16t11.5 20.5t26 24t29.5 19.5t23 10q14 4 21.5 9t21.5 5q16 0 48.5 1t46.5 -3q-18 -23 -42 -39t-38 -40q4 -18 12 -29.5t15.5 -22 t13.5 -22.5t6 -31q0 -6 -1 -16.5t-3 -22.5t-5 -23.5t-5 -15.5q-25 -51 -60 -73.5t-74.5 -29.5t-85 -5t-90.5 0z" />
<glyph unicode="&#xbb;" horiz-adv-x="858" d="M20 102q0 10 5.5 19.5t9.5 17.5q63 55 133 101.5t137 95.5q-61 55 -121.5 111.5t-115.5 117.5q47 47 106 82q74 -86 158 -161.5t170 -149.5q-41 -27 -93.5 -66t-106.5 -79.5t-103 -82.5t-82 -75q-6 2 -22.5 11t-33 19.5t-29 20.5t-12.5 18zM362 98q61 74 138.5 128.5 t148.5 117.5q-57 57 -120.5 105.5t-116.5 107.5q2 16 13 27.5t24.5 19.5t28 16.5t24.5 18.5q45 -39 86 -81t86 -83q41 -37 85 -69.5t79 -77.5q-51 -31 -96.5 -67t-92.5 -73t-88 -81t-92 -74q-31 0 -57.5 23.5t-49.5 41.5z" />
<glyph unicode="&#xc0;" horiz-adv-x="1333" d="M20 369q18 53 48 98t51 96h229q25 43 41.5 90t40.5 90q39 66 94.5 139.5t123 147.5t144 140.5t158.5 117.5t166 81t166 30q39 0 63.5 -9.5t53.5 -35.5q37 -35 57.5 -72t29.5 -78t10 -86t1 -92q0 -51 -20.5 -133t-52 -179.5t-72.5 -201.5t-83 -199.5t-82 -174.5t-71 -126 q-55 0 -110.5 1t-110.5 7q49 86 95 175.5t79 185.5q-141 -6 -279.5 -5t-277.5 -9q-2 -53 -6 -103.5t-4 -103.5q0 -86 23.5 -164t33.5 -162q-119 12 -229 49q-33 158 -33 328q0 41 3 82t7 82q-72 0 -143.5 -1t-143.5 -5zM578 571q23 0 45 -4t45 -6q123 0 241.5 4t241.5 4 q20 47 41.5 84t32.5 86q18 78 43.5 151t25.5 154q0 18 -1 44t-7 48.5t-19.5 38t-39.5 15.5q-53 2 -96.5 -24.5t-83.5 -55.5q-152 -104 -272.5 -237.5t-196.5 -301.5zM930 1749l227 -5l187 -286l-86 -2z" />
<glyph unicode="&#xc1;" horiz-adv-x="1333" d="M20 369q18 53 48 98t51 96h229q25 43 41.5 90t40.5 90q39 66 94.5 139.5t123 147.5t144 140.5t158.5 117.5t166 81t166 30q39 0 63.5 -9.5t53.5 -35.5q37 -35 57.5 -72t29.5 -78t10 -86t1 -92q0 -51 -20.5 -133t-52 -179.5t-72.5 -201.5t-83 -199.5t-82 -174.5t-71 -126 q-55 0 -110.5 1t-110.5 7q49 86 95 175.5t79 185.5q-141 -6 -279.5 -5t-277.5 -9q-2 -53 -6 -103.5t-4 -103.5q0 -86 23.5 -164t33.5 -162q-119 12 -229 49q-33 158 -33 328q0 41 3 82t7 82q-72 0 -143.5 -1t-143.5 -5zM578 571q23 0 45 -4t45 -6q123 0 241.5 4t241.5 4 q20 47 41.5 84t32.5 86q18 78 43.5 151t25.5 154q0 18 -1 44t-7 48.5t-19.5 38t-39.5 15.5q-53 2 -96.5 -24.5t-83.5 -55.5q-152 -104 -272.5 -237.5t-196.5 -301.5zM1298 1440l187 286l227 5l-328 -293z" />
<glyph unicode="&#xc2;" horiz-adv-x="1333" d="M20 369q18 53 48 98t51 96h229q25 43 41.5 90t40.5 90q39 66 94.5 139.5t123 147.5t144 140.5t158.5 117.5t166 81t166 30q39 0 63.5 -9.5t53.5 -35.5q37 -35 57.5 -72t29.5 -78t10 -86t1 -92q0 -51 -20.5 -133t-52 -179.5t-72.5 -201.5t-83 -199.5t-82 -174.5t-71 -126 q-55 0 -110.5 1t-110.5 7q49 86 95 175.5t79 185.5q-141 -6 -279.5 -5t-277.5 -9q-2 -53 -6 -103.5t-4 -103.5q0 -86 23.5 -164t33.5 -162q-119 12 -229 49q-33 158 -33 328q0 41 3 82t7 82q-72 0 -143.5 -1t-143.5 -5zM578 571q23 0 45 -4t45 -6q123 0 241.5 4t241.5 4 q20 47 41.5 84t32.5 86q18 78 43.5 151t25.5 154q0 18 -1 44t-7 48.5t-19.5 38t-39.5 15.5q-53 2 -96.5 -24.5t-83.5 -55.5q-152 -104 -272.5 -237.5t-196.5 -301.5zM987 1426l203 250l8 6h207l4 -6l108 -250l-65 -2l-176 145l-228 -145z" />
<glyph unicode="&#xc3;" horiz-adv-x="1333" d="M20 369q18 53 48 98t51 96h229q25 43 41.5 90t40.5 90q39 66 94.5 139.5t123 147.5t144 140.5t158.5 117.5t166 81t166 30q39 0 63.5 -9.5t53.5 -35.5q37 -35 57.5 -72t29.5 -78t10 -86t1 -92q0 -51 -20.5 -133t-52 -179.5t-72.5 -201.5t-83 -199.5t-82 -174.5t-71 -126 q-55 0 -110.5 1t-110.5 7q49 86 95 175.5t79 185.5q-141 -6 -279.5 -5t-277.5 -9q-2 -53 -6 -103.5t-4 -103.5q0 -86 23.5 -164t33.5 -162q-119 12 -229 49q-33 158 -33 328q0 41 3 82t7 82q-72 0 -143.5 -1t-143.5 -5zM578 571q23 0 45 -4t45 -6q123 0 241.5 4t241.5 4 q20 47 41.5 84t32.5 86q18 78 43.5 151t25.5 154q0 18 -1 44t-7 48.5t-19.5 38t-39.5 15.5q-53 2 -96.5 -24.5t-83.5 -55.5q-152 -104 -272.5 -237.5t-196.5 -301.5zM1022 1538q20 45 36 78t37.5 53.5t55 28.5t88.5 8q43 0 67 -16t42 -36.5t34.5 -37t45.5 -16.5 q41 -2 62.5 26.5t37.5 51.5q8 -4 19.5 -14.5t19.5 -24t14.5 -26.5t6.5 -21q0 -41 -42 -75t-116 -36q-43 0 -68.5 16.5t-46 37t-42 38t-54.5 17.5q-23 0 -35 -15.5t-20 -33t-14.5 -33t-16.5 -15.5q-35 0 -71 17.5t-40 27.5z" />
<glyph unicode="&#xc4;" horiz-adv-x="1411" d="M20 393q12 35 26.5 70t31.5 69q6 12 15 24.5t26 16.5q51 8 106.5 3t106.5 -5q41 102 99 204t131 194t158 170t179 135q78 47 170 87t184 38q68 0 112 -31t69.5 -80t35 -107.5t9.5 -113.5q0 -94 -37 -230.5t-91.5 -279.5t-115.5 -276.5t-111 -219.5q-16 -29 -46.5 -28.5 t-59.5 -3.5q-20 -2 -41 -5.5t-41 -3.5q-33 0 -49 17q0 23 10 43t23 39q43 66 75.5 133t65.5 137q-141 0 -278.5 -3t-278.5 -3q-12 -72 -12 -141q-2 -102 15 -200.5t36 -199.5q-49 6 -103.5 15.5t-101.5 25.5q-27 10 -29 30.5t-4 43.5q-4 70 -16.5 137.5t-9.5 138.5 q0 37 5 75t15 75q-70 6 -139.5 5t-139.5 5zM553 580q143 -2 286.5 1t286.5 -3q25 53 51.5 113.5t48 125t36 128t14.5 122.5q0 45 -14.5 83t-67.5 40q-47 0 -87 -23.5t-77 -48.5q-156 -104 -277.5 -234t-199.5 -304zM571 1296q0 61 31 87t88 26q47 -2 75 -32.5t28 -76.5 q-2 -47 -38 -82.5t-83 -33.5q-47 0 -75 32.5t-26 79.5zM1511 1300q0 59 33 82t84 23q43 0 74 -32t31 -75q0 -29 -23 -51q-12 -29 -40 -43t-58 -14q-45 0 -74 33.5t-27 76.5z" />
<glyph unicode="&#xc5;" horiz-adv-x="1333" d="M20 369q18 53 48 98t51 96h229q25 43 41.5 90t40.5 90q39 66 94.5 139.5t123 147.5t144 140.5t158.5 117.5t166 81t166 30q39 0 63.5 -9.5t53.5 -35.5q37 -35 57.5 -72t29.5 -78t10 -86t1 -92q0 -51 -20.5 -133t-52 -179.5t-72.5 -201.5t-83 -199.5t-82 -174.5t-71 -126 q-55 0 -110.5 1t-110.5 7q49 86 95 175.5t79 185.5q-141 -6 -279.5 -5t-277.5 -9q-2 -53 -6 -103.5t-4 -103.5q0 -86 23.5 -164t33.5 -162q-119 12 -229 49q-33 158 -33 328q0 41 3 82t7 82q-72 0 -143.5 -1t-143.5 -5zM578 571q23 0 45 -4t45 -6q123 0 241.5 4t241.5 4 q20 47 41.5 84t32.5 86q18 78 43.5 151t25.5 154q0 18 -1 44t-7 48.5t-19.5 38t-39.5 15.5q-53 2 -96.5 -24.5t-83.5 -55.5q-152 -104 -272.5 -237.5t-196.5 -301.5zM1194 1669q6 37 28.5 71.5t53 60t67.5 41t76 15.5t69.5 -15.5t52 -41t30 -60t2.5 -71.5 q-16 -80 -81 -135.5t-143 -55.5q-39 0 -70.5 14.5t-53 41t-30.5 60.5t-1 75zM1306 1669q-6 -33 13.5 -54.5t50.5 -21.5t56.5 21.5t31.5 54.5q4 31 -13.5 53t-47.5 22q-31 0 -59 -22t-32 -53z" />
<glyph unicode="&#xc6;" horiz-adv-x="1939" d="M20 369q18 53 48 98t51 96h229q25 43 41.5 90t40.5 90q39 66 94.5 139.5t123 147.5t144 140.5t158.5 117.5t166 81t166 30q39 0 63.5 -9.5t53.5 -35.5q43 -39 65 -92q59 39 125 68.5t132.5 50t130 30.5t118.5 10q43 0 86 -11t77 -35.5t54.5 -60.5t20.5 -85 q0 -68 -22.5 -134.5t-69.5 -113.5q-66 -66 -142 -123t-155 -106q-47 27 -94.5 47t-92.5 43q45 39 105.5 80t118 85t104.5 94t65 109q-35 12 -71 13q-47 0 -101.5 -13.5t-106.5 -35t-101.5 -48t-85.5 -53.5q-18 -14 -41 -36.5t-43.5 -50.5t-34 -56.5t-13.5 -52.5 q0 -43 20.5 -78t45.5 -64.5t46.5 -56.5t21.5 -53q0 -23 -14.5 -46.5t-30.5 -37.5q-35 -29 -77 -55.5t-81 -51.5q-86 -57 -170 -112.5t-166 -114.5q217 -2 434 -1t434 5q-12 -53 -42.5 -100.5t-63.5 -87.5q-16 -20 -45 -22.5t-53 -2.5l-656 4q-43 0 -85 7t-76.5 25.5 t-56 51.5t-21.5 84q0 27 7 57.5t19 53.5q10 16 33.5 40.5t58.5 53.5q-100 0 -199.5 -1t-197.5 -7q-2 -53 -6 -103.5t-4 -103.5q0 -86 23.5 -164t33.5 -162q-119 12 -229 49q-33 158 -33 328q0 41 3 82t7 82q-72 0 -143.5 -1t-143.5 -5zM578 571q61 -8 134.5 -10t150.5 -1 t154 4t146 3l131 88q-14 37 -28.5 61.5t-24.5 47t-16 51.5t-6 76q0 59 19 112.5t54 100.5q-4 33 -17 59.5t-48 26.5q-53 2 -96.5 -24.5t-83.5 -55.5q-152 -104 -273 -237.5t-196 -301.5z" />
<glyph unicode="&#xc7;" horiz-adv-x="1067" d="M23 340q0 43 16 97.5t40.5 107.5t53.5 103t53 85q119 166 253 298t306 241q109 68 219.5 116t241.5 48q98 0 161 -58.5t63 -158.5q0 -70 -33 -141.5t-85 -141.5t-121 -136.5t-139.5 -124t-138 -106.5t-120.5 -84q-16 -10 -34 -18t-38 -8q-55 0 -123 18.5t-117 40.5 q53 35 112.5 63.5t108.5 67.5q25 20 48.5 41t50.5 41q45 37 99 79t107.5 87t101.5 94t79 99q16 29 20 60.5t4 61.5q-16 6 -32.5 10.5t-32.5 4.5q-47 0 -86 -16.5t-78 -39.5q-113 -61 -226.5 -143t-213 -180t-178 -212t-121.5 -239q-10 -27 -11 -49q-2 -59 35 -99t97 -42 q51 0 102 -4t104 -4q104 0 208 4t208 2q-12 -57 -52 -102.5t-71 -92.5q-115 -6 -229.5 -7t-228.5 -1q-88 0 -160 16.5t-121 55.5t-75.5 103.5t-26.5 162.5zM354 -352q4 8 11.5 24.5t15.5 35t17.5 32.5t19.5 16q23 6 47.5 3t43.5 -1t32.5 16.5t13.5 55.5q0 20 -11 36.5 t-24.5 29t-25 20.5t-11.5 16t11.5 20.5t26 24t29.5 19.5t23 10q14 4 21.5 9t21.5 5q16 0 48.5 1t46.5 -3q-18 -23 -42 -39t-38 -40q4 -18 12 -29.5t15.5 -22t13.5 -22.5t6 -31q0 -6 -1 -16.5t-3 -22.5t-5 -23.5t-5 -15.5q-25 -51 -60 -73.5t-74.5 -29.5t-85 -5t-90.5 0z" />
<glyph unicode="&#xc8;" horiz-adv-x="1210" d="M20 170q0 27 7.5 57.5t19.5 53.5q18 33 82 86t138.5 109t147 105.5t109.5 73.5q-14 37 -28.5 61.5t-24.5 47t-16 51.5t-6 76q0 80 36.5 151.5t97 130t138.5 104.5t162 79t165.5 49t151.5 16q43 0 86 -11t77 -35.5t54.5 -60.5t20.5 -85q0 -68 -22.5 -134.5t-69.5 -113.5 q-66 -66 -142 -123t-155 -106q-47 27 -94.5 47t-92.5 43q45 39 105.5 80t118 85t104.5 94t65 109q-35 12 -71 13q-47 0 -101.5 -13.5t-106.5 -35t-101.5 -48t-86.5 -53.5q-18 -14 -40.5 -36.5t-43 -50.5t-34 -56.5t-13.5 -52.5q0 -43 20.5 -78t45.5 -64.5t46.5 -56.5 t21.5 -53q0 -23 -14.5 -46.5t-31.5 -37.5q-35 -29 -76.5 -55.5t-80.5 -51.5q-86 -57 -170 -112.5t-166 -114.5q217 -2 434 -1t434 5q-12 -53 -42.5 -100.5t-63.5 -87.5q-16 -20 -45 -22.5t-54 -2.5l-655 4q-43 0 -85 7t-77 25.5t-56.5 51.5t-21.5 84zM774 1731l227 -5 l187 -286l-86 -2z" />
<glyph unicode="&#xc9;" horiz-adv-x="1210" d="M20 170q0 27 7.5 57.5t19.5 53.5q18 33 82 86t138.5 109t147 105.5t109.5 73.5q-14 37 -28.5 61.5t-24.5 47t-16 51.5t-6 76q0 80 36.5 151.5t97 130t138.5 104.5t162 79t165.5 49t151.5 16q43 0 86 -11t77 -35.5t54.5 -60.5t20.5 -85q0 -68 -22.5 -134.5t-69.5 -113.5 q-66 -66 -142 -123t-155 -106q-47 27 -94.5 47t-92.5 43q45 39 105.5 80t118 85t104.5 94t65 109q-35 12 -71 13q-47 0 -101.5 -13.5t-106.5 -35t-101.5 -48t-86.5 -53.5q-18 -14 -40.5 -36.5t-43 -50.5t-34 -56.5t-13.5 -52.5q0 -43 20.5 -78t45.5 -64.5t46.5 -56.5 t21.5 -53q0 -23 -14.5 -46.5t-31.5 -37.5q-35 -29 -76.5 -55.5t-80.5 -51.5q-86 -57 -170 -112.5t-166 -114.5q217 -2 434 -1t434 5q-12 -53 -42.5 -100.5t-63.5 -87.5q-16 -20 -45 -22.5t-54 -2.5l-655 4q-43 0 -85 7t-77 25.5t-56.5 51.5t-21.5 84zM1288 1442l187 286 l227 5l-328 -293z" />
<glyph unicode="&#xca;" horiz-adv-x="1210" d="M20 170q0 27 7.5 57.5t19.5 53.5q18 33 82 86t138.5 109t147 105.5t109.5 73.5q-14 37 -28.5 61.5t-24.5 47t-16 51.5t-6 76q0 80 36.5 151.5t97 130t138.5 104.5t162 79t165.5 49t151.5 16q43 0 86 -11t77 -35.5t54.5 -60.5t20.5 -85q0 -68 -22.5 -134.5t-69.5 -113.5 q-66 -66 -142 -123t-155 -106q-47 27 -94.5 47t-92.5 43q45 39 105.5 80t118 85t104.5 94t65 109q-35 12 -71 13q-47 0 -101.5 -13.5t-106.5 -35t-101.5 -48t-86.5 -53.5q-18 -14 -40.5 -36.5t-43 -50.5t-34 -56.5t-13.5 -52.5q0 -43 20.5 -78t45.5 -64.5t46.5 -56.5 t21.5 -53q0 -23 -14.5 -46.5t-31.5 -37.5q-35 -29 -76.5 -55.5t-80.5 -51.5q-86 -57 -170 -112.5t-166 -114.5q217 -2 434 -1t434 5q-12 -53 -42.5 -100.5t-63.5 -87.5q-16 -20 -45 -22.5t-54 -2.5l-655 4q-43 0 -85 7t-77 25.5t-56.5 51.5t-21.5 84zM928 1426l203 250l8 6 h207l4 -6l108 -250l-65 -2l-176 145l-228 -145z" />
<glyph unicode="&#xcb;" horiz-adv-x="1210" d="M20 170q0 27 7.5 57.5t19.5 53.5q18 33 82 86t138.5 109t147 105.5t109.5 73.5q-14 37 -28.5 61.5t-24.5 47t-16 51.5t-6 76q0 80 36.5 151.5t97 130t138.5 104.5t162 79t165.5 49t151.5 16q43 0 86 -11t77 -35.5t54.5 -60.5t20.5 -85q0 -68 -22.5 -134.5t-69.5 -113.5 q-66 -66 -142 -123t-155 -106q-47 27 -94.5 47t-92.5 43q45 39 105.5 80t118 85t104.5 94t65 109q-35 12 -71 13q-47 0 -101.5 -13.5t-106.5 -35t-101.5 -48t-86.5 -53.5q-18 -14 -40.5 -36.5t-43 -50.5t-34 -56.5t-13.5 -52.5q0 -43 20.5 -78t45.5 -64.5t46.5 -56.5 t21.5 -53q0 -23 -14.5 -46.5t-31.5 -37.5q-35 -29 -76.5 -55.5t-80.5 -51.5q-86 -57 -170 -112.5t-166 -114.5q217 -2 434 -1t434 5q-12 -53 -42.5 -100.5t-63.5 -87.5q-16 -20 -45 -22.5t-54 -2.5l-655 4q-43 0 -85 7t-77 25.5t-56.5 51.5t-21.5 84zM567 1458q0 53 31 87 t86 34t87 -36t32 -89q0 -57 -36 -87t-91 -30q-53 0 -81 34t-28 87zM1444 1391q0 47 35 82.5t82 35.5q55 0 86.5 -37.5t31.5 -91.5q0 -53 -33.5 -82.5t-86.5 -29.5q-49 0 -82 36.5t-33 86.5z" />
<glyph unicode="&#xcc;" horiz-adv-x="1310" d="M20 6q18 61 59.5 109.5t72.5 103.5q104 0 207.5 2t207.5 2q92 0 163 18.5t144 73.5q53 39 87 81t60 88t46 97.5t45 108.5q49 109 94 216.5t88 217.5q2 18 7.5 37t5.5 37q0 25 -21 33q-45 0 -91 -17.5t-89 -44t-83 -58.5t-73 -58q-18 -16 -56 -53t-77 -79t-68.5 -83 t-29.5 -64q0 -59 31.5 -112.5t66.5 -100.5q-39 -45 -78 -86t-77 -86q-53 86 -97.5 180.5t-44.5 198.5q0 27 5 57.5t16 55.5q23 57 69.5 118.5t108 121t134.5 112.5t147.5 95t146.5 70.5t133 37.5q23 4 45 6t45 2q74 0 120 -53.5t46 -124.5q0 -35 -21.5 -105.5t-51 -150.5 t-59.5 -153t-46 -109q-47 -113 -96.5 -229t-119 -215t-163.5 -171t-229 -96q-68 -12 -138.5 -16.5t-140.5 -8.5q-225 -6 -451 -6zM799 1743l227 -5l187 -286l-86 -2z" />
<glyph unicode="&#xcd;" horiz-adv-x="1310" d="M20 6q18 61 59.5 109.5t72.5 103.5q104 0 207.5 2t207.5 2q92 0 163 18.5t144 73.5q53 39 87 81t60 88t46 97.5t45 108.5q49 109 94 216.5t88 217.5q2 18 7.5 37t5.5 37q0 25 -21 33q-45 0 -91 -17.5t-89 -44t-83 -58.5t-73 -58q-18 -16 -56 -53t-77 -79t-68.5 -83 t-29.5 -64q0 -59 31.5 -112.5t66.5 -100.5q-39 -45 -78 -86t-77 -86q-53 86 -97.5 180.5t-44.5 198.5q0 27 5 57.5t16 55.5q23 57 69.5 118.5t108 121t134.5 112.5t147.5 95t146.5 70.5t133 37.5q23 4 45 6t45 2q74 0 120 -53.5t46 -124.5q0 -35 -21.5 -105.5t-51 -150.5 t-59.5 -153t-46 -109q-47 -113 -96.5 -229t-119 -215t-163.5 -171t-229 -96q-68 -12 -138.5 -16.5t-140.5 -8.5q-225 -6 -451 -6zM1343 1487l187 286l227 5l-328 -293z" />
<glyph unicode="&#xce;" horiz-adv-x="1310" d="M20 6q18 61 59.5 109.5t72.5 103.5q104 0 207.5 2t207.5 2q92 0 163 18.5t144 73.5q53 39 87 81t60 88t46 97.5t45 108.5q49 109 94 216.5t88 217.5q2 18 7.5 37t5.5 37q0 25 -21 33q-45 0 -91 -17.5t-89 -44t-83 -58.5t-73 -58q-18 -16 -56 -53t-77 -79t-68.5 -83 t-29.5 -64q0 -59 31.5 -112.5t66.5 -100.5q-39 -45 -78 -86t-77 -86q-53 86 -97.5 180.5t-44.5 198.5q0 27 5 57.5t16 55.5q23 57 69.5 118.5t108 121t134.5 112.5t147.5 95t146.5 70.5t133 37.5q23 4 45 6t45 2q74 0 120 -53.5t46 -124.5q0 -35 -21.5 -105.5t-51 -150.5 t-59.5 -153t-46 -109q-47 -113 -96.5 -229t-119 -215t-163.5 -171t-229 -96q-68 -12 -138.5 -16.5t-140.5 -8.5q-225 -6 -451 -6zM1102 1448l203 250l8 6h207l4 -6l108 -250l-65 -2l-176 145l-228 -145z" />
<glyph unicode="&#xcf;" horiz-adv-x="1310" d="M20 6q18 61 59.5 109.5t72.5 103.5q104 0 207.5 2t207.5 2q92 0 163 18.5t144 73.5q53 39 87 81t60 88t46 97.5t45 108.5q49 109 94 216.5t88 217.5q2 18 7.5 37t5.5 37q0 25 -21 33q-45 0 -91 -17.5t-89 -44t-83 -58.5t-73 -58q-18 -16 -56 -53t-77 -79t-68.5 -83 t-29.5 -64q0 -59 31.5 -112.5t66.5 -100.5q-39 -45 -78 -86t-77 -86q-53 86 -97.5 180.5t-44.5 198.5q0 27 5 57.5t16 55.5q23 57 69.5 118.5t108 121t134.5 112.5t147.5 95t146.5 70.5t133 37.5q23 4 45 6t45 2q74 0 120 -53.5t46 -124.5q0 -35 -21.5 -105.5t-51 -150.5 t-59.5 -153t-46 -109q-47 -113 -96.5 -229t-119 -215t-163.5 -171t-229 -96q-68 -12 -138.5 -16.5t-140.5 -8.5q-225 -6 -451 -6zM1100 1587q0 53 30.5 87t85.5 34t87 -36t32 -89q0 -57 -35.5 -87t-91.5 -30q-53 0 -80.5 34t-27.5 87zM1417 1589q0 47 35 83t82 36 q55 0 87 -38t32 -91t-34 -83t-87 -30q-49 0 -82 37t-33 86z" />
<glyph unicode="&#xd0;" horiz-adv-x="1200" d="M12 522l66 172h149q16 49 36 97.5t48 91.5q12 20 47 36.5t76 26.5t82 16.5t66 8.5q-29 -51 -64 -123t-69 -154h229l-66 -172h-231q-35 -90 -60.5 -171t-37.5 -140q121 29 234.5 92.5t217.5 126.5q76 47 171 125t180 173t142.5 197.5t57.5 198.5q0 27 -15.5 42.5t-37 23.5 t-46 10t-42.5 2q-61 2 -118.5 -13t-117.5 -30q-158 -37 -309 -80t-305 -98q-53 -20 -105.5 -46t-107.5 -44q0 127 49 237q23 23 54.5 35.5t60.5 22.5q115 37 232.5 73.5t237.5 67.5t240.5 51.5t241.5 24.5h23q123 0 199.5 -76t76.5 -199q0 -59 -21.5 -126.5t-54 -133 t-73.5 -125t-80 -102.5q-59 -68 -116.5 -137.5t-129.5 -122.5q-59 -45 -143 -101.5t-175.5 -109.5t-180.5 -95t-158 -61q-61 -16 -133 -24t-138 -8q-4 0 -15 4t-22.5 10t-21.5 11t-15 7q16 131 62.5 256t89.5 252h-160z" />
<glyph unicode="&#xd1;" horiz-adv-x="1466" d="M20 14q178 164 325 354.5t284 389.5q104 145 190 298.5t182 305.5q63 18 126 31.5t128 25.5q-53 -123 -104 -262t-91 -283.5t-65.5 -290t-29.5 -278.5q76 53 130 129t107 150q61 84 115.5 172t101.5 182q18 35 34.5 72t37.5 71q51 92 92 180.5t74 188.5q8 -12 28.5 -41 t42 -60.5t37 -60t15.5 -41.5q0 -23 -8.5 -41t-18.5 -35q-59 -125 -122.5 -246.5t-135.5 -237.5t-152.5 -226.5t-175.5 -212.5q-25 -29 -63.5 -72t-83.5 -85t-91 -71.5t-83 -29.5q-29 0 -45.5 20.5t-23.5 48t-8 58t-1 53.5q0 84 13.5 167t30.5 165t34.5 162.5t30.5 164.5 q-43 -53 -78 -112.5t-72 -114.5q-141 -225 -309 -432q-20 -29 -42 -56.5t-44 -52.5q-18 -20 -38 -37.5t-48 -21.5q-29 -4 -59.5 -1t-59.5 3q-27 0 -53.5 2t-53.5 8zM1136 1564q20 45 36 78t37.5 53.5t55 28.5t88.5 8q43 0 67 -16t42 -36.5t34.5 -37t45.5 -16.5 q41 -2 62.5 26.5t37.5 51.5q8 -4 19.5 -14.5t19.5 -24t14.5 -26.5t6.5 -21q0 -41 -42 -75t-116 -36q-43 0 -68.5 16.5t-46 37t-42 38t-54.5 17.5q-23 0 -35 -15.5t-20 -33t-14.5 -33t-16.5 -15.5q-35 0 -71 17.5t-40 27.5z" />
<glyph unicode="&#xd2;" horiz-adv-x="1323" d="M23 483q0 55 8 102.5t23.5 92.5t35 89t41.5 91q59 135 158.5 232.5t218.5 177.5q68 47 146.5 73.5t158.5 47.5q23 6 47 8t47 2q80 0 157 -30t140.5 -81t106.5 -120.5t57 -149.5h123q12 -53 19.5 -106.5t11.5 -106.5q-29 0 -56.5 2t-56.5 2q-14 0 -29.5 -1t-29.5 -3 q-23 -94 -66 -190.5t-105.5 -188.5t-139 -173t-166 -140.5t-188.5 -94t-202 -34.5q-109 0 -193.5 39.5t-145 107.5t-91 159t-30.5 193zM217 489q0 -59 17.5 -111t51 -91t82 -61.5t111.5 -22.5q113 0 220.5 54t196.5 141t152.5 192.5t88.5 208.5q-35 4 -67 10t-56.5 19.5 t-40 40t-15.5 71.5q0 59 33 116.5t58 110.5q-63 29 -131 29q-94 0 -188.5 -42t-178.5 -108.5t-151.5 -148.5t-106.5 -162q-29 -59 -52.5 -118.5t-23.5 -127.5zM680 1711l227 -5l187 -286l-86 -2z" />
<glyph unicode="&#xd3;" horiz-adv-x="1323" d="M23 483q0 55 8 102.5t23.5 92.5t35 89t41.5 91q59 135 158.5 232.5t218.5 177.5q68 47 146.5 73.5t158.5 47.5q23 6 47 8t47 2q80 0 157 -30t140.5 -81t106.5 -120.5t57 -149.5h123q12 -53 19.5 -106.5t11.5 -106.5q-29 0 -56.5 2t-56.5 2q-14 0 -29.5 -1t-29.5 -3 q-23 -94 -66 -190.5t-105.5 -188.5t-139 -173t-166 -140.5t-188.5 -94t-202 -34.5q-109 0 -193.5 39.5t-145 107.5t-91 159t-30.5 193zM217 489q0 -59 17.5 -111t51 -91t82 -61.5t111.5 -22.5q113 0 220.5 54t196.5 141t152.5 192.5t88.5 208.5q-35 4 -67 10t-56.5 19.5 t-40 40t-15.5 71.5q0 59 33 116.5t58 110.5q-63 29 -131 29q-94 0 -188.5 -42t-178.5 -108.5t-151.5 -148.5t-106.5 -162q-29 -59 -52.5 -118.5t-23.5 -127.5zM1083 1403l187 286l227 5l-328 -293z" />
<glyph unicode="&#xd4;" horiz-adv-x="1323" d="M23 483q0 55 8 102.5t23.5 92.5t35 89t41.5 91q59 135 158.5 232.5t218.5 177.5q68 47 146.5 73.5t158.5 47.5q23 6 47 8t47 2q80 0 157 -30t140.5 -81t106.5 -120.5t57 -149.5h123q12 -53 19.5 -106.5t11.5 -106.5q-29 0 -56.5 2t-56.5 2q-14 0 -29.5 -1t-29.5 -3 q-23 -94 -66 -190.5t-105.5 -188.5t-139 -173t-166 -140.5t-188.5 -94t-202 -34.5q-109 0 -193.5 39.5t-145 107.5t-91 159t-30.5 193zM217 489q0 -59 17.5 -111t51 -91t82 -61.5t111.5 -22.5q113 0 220.5 54t196.5 141t152.5 192.5t88.5 208.5q-35 4 -67 10t-56.5 19.5 t-40 40t-15.5 71.5q0 59 33 116.5t58 110.5q-63 29 -131 29q-94 0 -188.5 -42t-178.5 -108.5t-151.5 -148.5t-106.5 -162q-29 -59 -52.5 -118.5t-23.5 -127.5zM684 1432l203 250l8 6h207l4 -6l108 -250l-65 -2l-176 145l-228 -145z" />
<glyph unicode="&#xd5;" horiz-adv-x="1323" d="M23 483q0 55 8 102.5t23.5 92.5t35 89t41.5 91q59 135 158.5 232.5t218.5 177.5q68 47 146.5 73.5t158.5 47.5q23 6 47 8t47 2q80 0 157 -30t140.5 -81t106.5 -120.5t57 -149.5h123q12 -53 19.5 -106.5t11.5 -106.5q-29 0 -56.5 2t-56.5 2q-14 0 -29.5 -1t-29.5 -3 q-23 -94 -66 -190.5t-105.5 -188.5t-139 -173t-166 -140.5t-188.5 -94t-202 -34.5q-109 0 -193.5 39.5t-145 107.5t-91 159t-30.5 193zM217 489q0 -59 17.5 -111t51 -91t82 -61.5t111.5 -22.5q113 0 220.5 54t196.5 141t152.5 192.5t88.5 208.5q-35 4 -67 10t-56.5 19.5 t-40 40t-15.5 71.5q0 59 33 116.5t58 110.5q-63 29 -131 29q-94 0 -188.5 -42t-178.5 -108.5t-151.5 -148.5t-106.5 -162q-29 -59 -52.5 -118.5t-23.5 -127.5zM802 1503q20 45 36 78t37.5 53.5t55 28.5t88.5 8q43 0 67 -16t42 -36.5t34.5 -37t45.5 -16.5q41 -2 62.5 26.5 t37.5 51.5q8 -4 19.5 -14.5t19.5 -24t14.5 -26.5t6.5 -21q0 -41 -42 -75t-116 -36q-43 0 -68.5 16.5t-46 37t-42 38t-54.5 17.5q-23 0 -35 -15.5t-20 -33t-14.5 -33t-16.5 -15.5q-35 0 -71 17.5t-40 27.5z" />
<glyph unicode="&#xd6;" horiz-adv-x="1353" d="M21.5 545.5q-1.5 19.5 1.5 38.5q2 29 10 62.5t20.5 67.5t26.5 65.5l26 58.5q51 113 140.5 215t200 180t236.5 123t255 45q88 0 167 -36t137 -95.5t92 -139t34 -167.5q0 -106 -36 -219t-98.5 -218.5t-146 -199t-183 -163t-209 -109.5t-220.5 -40q-61 0 -122.5 19.5 t-116 54.5t-99.5 82t-74 102q-29 53 -34.5 115t-5.5 121q0 18 -1.5 37.5zM164 1288q0 43 25.5 83t72.5 40t82 -26.5t35 -77.5q-2 -53 -27.5 -90t-85.5 -37q-47 0 -75.5 31.5t-26.5 76.5zM229 508q0 -125 76 -198.5t201 -73.5q96 0 187 43t168 112.5t137.5 153.5t97.5 166 q25 53 47 106t22 113q0 117 -58 196.5t-183 79.5q-55 0 -125 -18.5t-119 -42.5q-109 -53 -180.5 -123t-139.5 -170q-57 -84 -94 -162t-37 -182zM1321 1278q0 14 9 31.5t22.5 33t29 28t29.5 18.5q23 0 46.5 -8.5t43 -21.5t31.5 -32.5t12 -44.5q-2 -41 -29.5 -78t-72.5 -37 q-47 0 -85 30t-36 81z" />
<glyph unicode="&#xd8;" horiz-adv-x="1323" d="M23 483q0 55 8 102.5t23.5 92.5t35 89t41.5 91q59 135 158.5 232.5t218.5 177.5q68 47 146.5 73.5t158.5 47.5q23 6 47 8t47 2q80 0 157 -30t140.5 -81t106.5 -120.5t57 -149.5h123q12 -53 19.5 -106.5t11.5 -106.5q-29 0 -56.5 2t-56.5 2q-14 0 -29.5 -1t-29.5 -3 q-23 -94 -66 -190.5t-105.5 -188.5t-139 -173t-166 -140.5t-188.5 -94t-202 -34.5q-109 0 -193.5 39.5t-145 107.5t-91 159t-30.5 193zM72 12q29 66 69.5 122t83.5 116q133 193 263.5 384t265.5 384q55 78 106 157.5t109 153.5q14 18 24.5 27.5t20.5 14.5t22.5 7t32.5 8 q37 10 76 23.5t74 13.5q10 0 30 -4q-123 -158 -227 -322.5t-221 -324.5q-135 -188 -264 -377.5t-254 -382.5h-211zM217 489q0 -59 17.5 -111t51 -91t82 -61.5t111.5 -22.5q113 0 220.5 54t196.5 141t152.5 192.5t88.5 208.5q-35 4 -67 10t-56.5 19.5t-40 40t-15.5 71.5 q0 59 33 116.5t58 110.5q-63 29 -131 29q-94 0 -188.5 -42t-178.5 -108.5t-151.5 -148.5t-106.5 -162q-29 -59 -52.5 -118.5t-23.5 -127.5z" />
<glyph unicode="&#xd9;" horiz-adv-x="1177" d="M20 240q2 80 29 164.5t60 158.5q59 131 120.5 259t102.5 265q10 35 10 62q0 29 -10 56.5t-33 45.5l-147 25q8 16 28.5 49t46 64.5t50 56t42.5 24.5q23 0 45.5 -8t43.5 -14q78 -25 129 -87.5t51 -148.5q0 -63 -25.5 -145t-64.5 -172t-83 -181t-83 -173t-64.5 -150.5 t-25.5 -111.5q-2 -27 17.5 -50.5t47.5 -23.5q31 0 73 20.5t84 50t78 60.5t58 53q25 25 56.5 60.5t63.5 75.5t59.5 80t41.5 71q33 68 60.5 136.5t55.5 136t59.5 134t72.5 131.5q10 16 21.5 39t23.5 45.5t28.5 40t35.5 23.5q23 8 55.5 15t67 13.5t68.5 10.5t58 4q6 0 13.5 -1 t15.5 -1q-16 -59 -44 -102.5t-56 -94.5q-16 -27 -27.5 -55.5t-25.5 -56.5q-41 -78 -85 -156t-94 -150q-43 -66 -84 -120t-63 -131q-18 -66 -34.5 -132.5t-16.5 -134.5q0 -25 28.5 -37t67.5 -16t77 -3t56 1q-27 -51 -49.5 -102.5t-48.5 -100.5q-25 0 -49.5 -1t-49.5 -1 q-49 0 -92 4t-74.5 20.5t-50 50.5t-18.5 95q0 29 4 55.5t4 55.5q-45 -49 -97 -101.5t-110.5 -95.5t-124 -70.5t-137.5 -27.5q-51 0 -95 19.5t-77 52t-51.5 76.5t-18.5 96zM584 1590l227 -5l187 -286l-86 -2z" />
<glyph unicode="&#xda;" horiz-adv-x="1177" d="M20 240q2 80 29 164.5t60 158.5q59 131 120.5 259t102.5 265q10 35 10 62q0 29 -10 56.5t-33 45.5l-147 25q8 16 28.5 49t46 64.5t50 56t42.5 24.5q23 0 45.5 -8t43.5 -14q78 -25 129 -87.5t51 -148.5q0 -63 -25.5 -145t-64.5 -172t-83 -181t-83 -173t-64.5 -150.5 t-25.5 -111.5q-2 -27 17.5 -50.5t47.5 -23.5q31 0 73 20.5t84 50t78 60.5t58 53q25 25 56.5 60.5t63.5 75.5t59.5 80t41.5 71q33 68 60.5 136.5t55.5 136t59.5 134t72.5 131.5q10 16 21.5 39t23.5 45.5t28.5 40t35.5 23.5q23 8 55.5 15t67 13.5t68.5 10.5t58 4q6 0 13.5 -1 t15.5 -1q-16 -59 -44 -102.5t-56 -94.5q-16 -27 -27.5 -55.5t-25.5 -56.5q-41 -78 -85 -156t-94 -150q-43 -66 -84 -120t-63 -131q-18 -66 -34.5 -132.5t-16.5 -134.5q0 -25 28.5 -37t67.5 -16t77 -3t56 1q-27 -51 -49.5 -102.5t-48.5 -100.5q-25 0 -49.5 -1t-49.5 -1 q-49 0 -92 4t-74.5 20.5t-50 50.5t-18.5 95q0 29 4 55.5t4 55.5q-45 -49 -97 -101.5t-110.5 -95.5t-124 -70.5t-137.5 -27.5q-51 0 -95 19.5t-77 52t-51.5 76.5t-18.5 96zM739 1284l187 286l227 5l-328 -293z" />
<glyph unicode="&#xdb;" horiz-adv-x="1177" d="M20 240q2 80 29 164.5t60 158.5q59 131 120.5 259t102.5 265q10 35 10 62q0 29 -10 56.5t-33 45.5l-147 25q8 16 28.5 49t46 64.5t50 56t42.5 24.5q23 0 45.5 -8t43.5 -14q78 -25 129 -87.5t51 -148.5q0 -63 -25.5 -145t-64.5 -172t-83 -181t-83 -173t-64.5 -150.5 t-25.5 -111.5q-2 -27 17.5 -50.5t47.5 -23.5q31 0 73 20.5t84 50t78 60.5t58 53q25 25 56.5 60.5t63.5 75.5t59.5 80t41.5 71q33 68 60.5 136.5t55.5 136t59.5 134t72.5 131.5q10 16 21.5 39t23.5 45.5t28.5 40t35.5 23.5q23 8 55.5 15t67 13.5t68.5 10.5t58 4q6 0 13.5 -1 t15.5 -1q-16 -59 -44 -102.5t-56 -94.5q-16 -27 -27.5 -55.5t-25.5 -56.5q-41 -78 -85 -156t-94 -150q-43 -66 -84 -120t-63 -131q-18 -66 -34.5 -132.5t-16.5 -134.5q0 -25 28.5 -37t67.5 -16t77 -3t56 1q-27 -51 -49.5 -102.5t-48.5 -100.5q-25 0 -49.5 -1t-49.5 -1 q-49 0 -92 4t-74.5 20.5t-50 50.5t-18.5 95q0 29 4 55.5t4 55.5q-45 -49 -97 -101.5t-110.5 -95.5t-124 -70.5t-137.5 -27.5q-51 0 -95 19.5t-77 52t-51.5 76.5t-18.5 96zM602 1360l203 250l8 6h207l4 -6l108 -250l-65 -2l-176 145l-228 -145z" />
<glyph unicode="&#xdc;" horiz-adv-x="1183" d="M21.5 322.5q-1.5 17.5 1.5 33.5q6 51 31.5 120t60.5 144.5t73.5 154.5t71.5 154t54.5 141.5t21.5 115.5q0 37 -17.5 56.5t-45 29.5t-59.5 14t-56 10q29 47 59.5 98.5t79.5 82.5q129 -14 199.5 -89t68.5 -206q0 -47 -13 -96.5t-32.5 -97.5t-43 -94t-42.5 -89l-125 -270 q-25 -55 -49 -116t-24 -122q0 -31 21.5 -45t47.5 -14q39 0 81 18t71 41q39 31 91 80t102 103.5t93 108.5t66 99q14 29 39.5 88.5t58.5 131l69 149.5t71.5 143.5t68.5 111.5t58 56q59 23 128.5 30t133.5 17q-25 -78 -69 -167t-96 -178t-107.5 -173t-100.5 -152 q-31 -47 -57.5 -90t-40.5 -98q-16 -70 -29.5 -132.5t-13.5 -133.5q0 -23 16 -32t39.5 -11t47.5 0t40 2q20 0 40.5 -2t39.5 -10q-25 -41 -44.5 -89.5t-47.5 -82.5q-8 -10 -23.5 -15.5t-33 -7.5t-35 -2h-29.5q-41 0 -79 4t-68.5 19.5t-49 45t-18.5 78.5q2 31 6 62t4 61 q-51 -43 -104.5 -91t-111.5 -90t-121.5 -68.5t-137.5 -26.5q-111 2 -171.5 74.5t-57.5 179.5q0 16 -1.5 33.5zM584 1362q0 20 7 41.5t21.5 40t31.5 30t40 11.5q51 0 83 -33t32 -82q0 -47 -30 -82t-79 -35q-47 2 -76.5 32t-29.5 77zM854 1350q0 47 32 81.5t81 34.5 q43 0 74.5 -33.5t31.5 -74.5q0 -45 -33.5 -79t-78.5 -34q-43 0 -75 31t-32 74z" />
<glyph unicode="&#xdd;" horiz-adv-x="989" d="M23 242q0 61 33.5 158.5t78.5 202t92 201.5t76 163q23 57 50.5 113.5t39.5 115.5q-53 18 -109.5 21.5t-111.5 3.5q14 55 40.5 104t51.5 100q55 -4 118.5 -5t117 -16t88.5 -54t35 -119q0 -25 -16.5 -76t-42 -116.5t-57.5 -139.5t-62.5 -141.5t-56.5 -122.5t-38 -86 q-10 -23 -28.5 -61.5t-37 -80.5t-31.5 -80t-13 -59q0 -18 11 -34.5t32 -16.5q8 0 16 4q43 -8 97.5 21.5t112.5 81t114.5 117t104.5 132t83 125t49 95.5q45 119 99.5 230.5t105.5 227.5q25 51 53.5 64.5t79.5 23.5q63 16 121.5 38t124.5 28q-33 -80 -84 -173t-108.5 -187.5 t-116 -184.5t-105.5 -166q-25 -41 -43 -85t-33.5 -91t-30 -94t-32.5 -90q-35 -80 -71 -157t-70 -154q-78 -172 -174.5 -315.5t-204.5 -297.5q-59 0 -118.5 5t-119.5 14q41 61 90 117.5t90 117.5q98 143 186.5 284.5t153.5 305.5q-49 -41 -95 -83t-96 -76t-107.5 -55.5 t-127.5 -21.5q-96 2 -151.5 65.5t-52.5 158.5zM747 1241l187 286l227 5l-328 -293z" />
<glyph unicode="&#xdf;" horiz-adv-x="860" d="M-256 -625q0 20 17.5 69.5t39 106t43 108.5t31.5 77q70 174 142.5 346t146.5 346q25 61 52.5 120.5t51.5 121.5q33 82 70 166t82 162.5t102.5 147t132.5 122.5q47 33 92.5 54t104.5 21q80 0 138.5 -28.5t90.5 -106.5q14 -33 22.5 -61.5t8.5 -65.5q0 -78 -35 -151.5 t-88 -140t-116.5 -124t-120.5 -102.5q23 -55 38 -113.5t15 -117.5q0 -70 -21 -129q-35 -94 -83 -137t-108.5 -59.5t-132 -17.5t-151.5 -7q6 47 26.5 89t39.5 83q23 0 47 -2t47 -2q25 0 48.5 4t45.5 16q12 14 23.5 35.5t20.5 46t15.5 48.5t6.5 42q0 66 -39 121t-84 100 q49 39 122.5 99.5t143.5 131t119 144.5t49 141q0 57 -39 90q-18 8 -47 9q-63 0 -122.5 -52.5t-109 -126t-88 -151.5t-59.5 -129q-84 -193 -157.5 -385.5t-155.5 -384.5q-55 -131 -111.5 -263t-118.5 -261h-32q-35 -23 -75 -31t-81 -19z" />
<glyph unicode="&#xe0;" horiz-adv-x="796" d="M20 184q0 45 23 95.5t56.5 98.5t72.5 89t72 70q51 43 116.5 70.5t136 42t142 19.5t137.5 5q-18 -41 -39.5 -82t-42.5 -82q-94 -6 -180 -27.5t-164 -76.5q-59 -43 -106 -98.5t-60 -131.5q16 0 34 -1t36 -1q66 0 95.5 26.5t45 64.5t27.5 83t43 82q43 4 86 6t86 8 q-8 -31 -21.5 -61.5t-25.5 -61t-20.5 -63.5t-8.5 -65v-19q41 -6 82 -7t82 -1q-12 -41 -29.5 -79t-36.5 -77h-73q-35 0 -79 5t-77 22q-10 6 -16 10t-21 4q-20 0 -39.5 -9t-38.5 -13q-29 -8 -60.5 -11.5t-61.5 -3.5q-20 0 -45 1t-46 5q-25 6 -41 24.5t-25 43.5t-12.5 50.5 t-3.5 45.5zM191 1004l227 -5l187 -286l-86 -2z" />
<glyph unicode="&#xe1;" horiz-adv-x="796" d="M20 184q0 45 23 95.5t56.5 98.5t72.5 89t72 70q51 43 116.5 70.5t136 42t142 19.5t137.5 5q-18 -41 -39.5 -82t-42.5 -82q-94 -6 -180 -27.5t-164 -76.5q-59 -43 -106 -98.5t-60 -131.5q16 0 34 -1t36 -1q66 0 95.5 26.5t45 64.5t27.5 83t43 82q43 4 86 6t86 8 q-8 -31 -21.5 -61.5t-25.5 -61t-20.5 -63.5t-8.5 -65v-19q41 -6 82 -7t82 -1q-12 -41 -29.5 -79t-36.5 -77h-73q-35 0 -79 5t-77 22q-10 6 -16 10t-21 4q-20 0 -39.5 -9t-38.5 -13q-29 -8 -60.5 -11.5t-61.5 -3.5q-20 0 -45 1t-46 5q-25 6 -41 24.5t-25 43.5t-12.5 50.5 t-3.5 45.5zM370 713l187 286l227 5l-328 -293z" />
<glyph unicode="&#xe2;" horiz-adv-x="796" d="M20 184q0 45 23 95.5t56.5 98.5t72.5 89t72 70q51 43 116.5 70.5t136 42t142 19.5t137.5 5q-18 -41 -39.5 -82t-42.5 -82q-94 -6 -180 -27.5t-164 -76.5q-59 -43 -106 -98.5t-60 -131.5q16 0 34 -1t36 -1q66 0 95.5 26.5t45 64.5t27.5 83t43 82q43 4 86 6t86 8 q-8 -31 -21.5 -61.5t-25.5 -61t-20.5 -63.5t-8.5 -65v-19q41 -6 82 -7t82 -1q-12 -41 -29.5 -79t-36.5 -77h-73q-35 0 -79 5t-77 22q-10 6 -16 10t-21 4q-20 0 -39.5 -9t-38.5 -13q-29 -8 -60.5 -11.5t-61.5 -3.5q-20 0 -45 1t-46 5q-25 6 -41 24.5t-25 43.5t-12.5 50.5 t-3.5 45.5zM260 754l203 250l8 6h207l4 -6l108 -250l-65 -2l-176 145l-228 -145z" />
<glyph unicode="&#xe3;" horiz-adv-x="796" d="M20 184q0 45 23 95.5t56.5 98.5t72.5 89t72 70q51 43 116.5 70.5t136 42t142 19.5t137.5 5q-18 -41 -39.5 -82t-42.5 -82q-94 -6 -180 -27.5t-164 -76.5q-59 -43 -106 -98.5t-60 -131.5q16 0 34 -1t36 -1q66 0 95.5 26.5t45 64.5t27.5 83t43 82q43 4 86 6t86 8 q-8 -31 -21.5 -61.5t-25.5 -61t-20.5 -63.5t-8.5 -65v-19q41 -6 82 -7t82 -1q-12 -41 -29.5 -79t-36.5 -77h-73q-35 0 -79 5t-77 22q-10 6 -16 10t-21 4q-20 0 -39.5 -9t-38.5 -13q-29 -8 -60.5 -11.5t-61.5 -3.5q-20 0 -45 1t-46 5q-25 6 -41 24.5t-25 43.5t-12.5 50.5 t-3.5 45.5zM274 807q20 45 36 78t37.5 53.5t55 28.5t88.5 8q43 0 67 -16t42 -36.5t34.5 -37t45.5 -16.5q41 -2 62.5 26.5t37.5 51.5q8 -4 19.5 -14.5t19.5 -24t14.5 -26.5t6.5 -21q0 -41 -42 -75t-116 -36q-43 0 -68.5 16.5t-46 37t-42 38t-54.5 17.5q-23 0 -35 -15.5 t-20 -33t-14.5 -33t-16.5 -15.5q-35 0 -71 17.5t-40 27.5z" />
<glyph unicode="&#xe4;" horiz-adv-x="872" d="M20 141q0 47 11 92q6 23 24.5 59t43 73.5t49 70.5t40.5 49q53 49 122 82t144.5 53.5t152.5 31t147 14.5q-6 -47 -29 -89t-45 -83q-10 2 -18.5 2h-18.5q-72 0 -140.5 -20.5t-127 -58.5t-105.5 -91.5t-75 -118.5q-4 -12 -5 -21q0 -10 8.5 -15t20.5 -8t24.5 -4t20.5 -1 q39 0 66.5 15t44.5 50q23 47 40 96.5t36 100.5q47 0 91 5t89 11q-18 -66 -51 -136.5t-45 -137.5h184q-12 -37 -26.5 -79t-39.5 -73q-31 -4 -60.5 -7t-60.5 -3q-37 0 -72.5 10t-60.5 41q-47 -29 -99 -39t-105 -10q-35 0 -67 6t-55.5 22.5t-38 43t-14.5 67.5zM301 954 q0 53 31 88t84 35q45 0 79.5 -32.5t34.5 -79.5q0 -43 -31.5 -85t-78.5 -42q-55 0 -87 30.5t-32 85.5zM614 981q0 43 37 73.5t78 30.5q53 0 88 -40.5t35 -92.5q0 -47 -32 -78.5t-79 -31.5q-25 0 -48 8t-41.5 23.5t-29 38t-6.5 49.5q-2 6 -2 20z" />
<glyph unicode="&#xe5;" horiz-adv-x="796" d="M20 184q0 45 23 95.5t56.5 98.5t72.5 89t72 70q51 43 116.5 70.5t136 42t142 19.5t137.5 5q-18 -41 -39.5 -82t-42.5 -82q-94 -6 -180 -27.5t-164 -76.5q-59 -43 -106 -98.5t-60 -131.5q16 0 34 -1t36 -1q66 0 95.5 26.5t45 64.5t27.5 83t43 82q43 4 86 6t86 8 q-8 -31 -21.5 -61.5t-25.5 -61t-20.5 -63.5t-8.5 -65v-19q41 -6 82 -7t82 -1q-12 -41 -29.5 -79t-36.5 -77h-73q-35 0 -79 5t-77 22q-10 6 -16 10t-21 4q-20 0 -39.5 -9t-38.5 -13q-29 -8 -60.5 -11.5t-61.5 -3.5q-20 0 -45 1t-46 5q-25 6 -41 24.5t-25 43.5t-12.5 50.5 t-3.5 45.5zM418 928q6 37 28.5 71.5t53 60t67.5 41t76 15.5t69.5 -15.5t52 -41t30 -60t2.5 -71.5q-16 -80 -81 -135.5t-143 -55.5q-39 0 -70.5 14.5t-53 41t-30.5 60.5t-1 75zM530 928q-6 -33 13.5 -54.5t50.5 -21.5t56.5 21.5t31.5 54.5q4 31 -13.5 53t-47.5 22 q-31 0 -59 -22t-32 -53z" />
<glyph unicode="&#xe6;" horiz-adv-x="1036" d="M20 184q0 45 23 95.5t56.5 98.5t72.5 89t72 70q51 43 117.5 70.5t138 43t142.5 19.5t132 0q45 12 98 12q33 0 65 -7t58.5 -22.5t43 -42t16.5 -63.5q0 -76 -45 -136.5t-107.5 -108.5t-131.5 -82t-114 -56l295 4q-6 -29 -11 -56.5t-17.5 -51t-33 -38t-54.5 -14.5 q-25 0 -64 -1t-80 -1h-77.5t-57.5 4h-2q-31 2 -64.5 7.5t-60.5 19.5q-10 6 -16 10t-21 4q-20 0 -39.5 -9t-38.5 -13q-29 -8 -60.5 -11.5t-61.5 -3.5q-20 0 -45 1t-46 5q-25 6 -41 24.5t-25 43.5t-12.5 50.5t-3.5 45.5zM184 176q16 0 34 -1t36 -1q63 0 93 25.5t45.5 62.5 t27.5 81t41 81q8 14 15 27.5t18 25.5q-39 -12 -74 -29t-70 -42q-59 -43 -106 -98.5t-60 -131.5zM541 240q49 25 101 54.5t100.5 65t84 79.5t52.5 102q-57 0 -109.5 -30t-96.5 -74t-78 -97t-54 -100z" />
<glyph unicode="&#xe7;" horiz-adv-x="708" d="M20 197q0 16 3 24q14 86 64 171t123 150.5t160 106.5t179 41q61 0 100 -31.5t39 -97.5q0 -20 -3 -48t-12 -54.5t-23.5 -48t-35.5 -27.5q-29 -10 -55.5 -18.5t-56.5 -8.5h-13.5t-13.5 2q20 41 34.5 83t14.5 89q-55 0 -113.5 -33.5t-106.5 -86t-81 -113.5t-37 -117 q98 -27 196.5 -22.5t197.5 4.5q-12 -33 -25.5 -62.5t-32.5 -60.5q-16 -27 -42.5 -30t-55.5 -3q-57 0 -128 -1t-132.5 13.5t-102.5 54.5t-41 124zM49 -352q4 8 11.5 24.5t15.5 35t17.5 32.5t19.5 16q23 6 47.5 3t43.5 -1t32.5 16.5t13.5 55.5q0 20 -11 36.5t-24.5 29 t-25 20.5t-11.5 16t11.5 20.5t26 24t29.5 19.5t23 10q14 4 21.5 9t21.5 5q16 0 48.5 1t46.5 -3q-18 -23 -42 -39t-38 -40q4 -18 12 -29.5t15.5 -22t13.5 -22.5t6 -31q0 -6 -1 -16.5t-3 -22.5t-5 -23.5t-5 -15.5q-25 -51 -60 -73.5t-74.5 -29.5t-85 -5t-90.5 0z" />
<glyph unicode="&#xe8;" horiz-adv-x="743" d="M72 213q0 92 39 176t104.5 149.5t150.5 104.5t175 39q33 0 64.5 -7t58 -22.5t43 -42t16.5 -63.5q0 -74 -42 -134.5t-103.5 -107.5t-133 -82t-129.5 -57q76 -6 152 -8t151 -2q-6 -29 -11 -54.5t-16 -47t-31.5 -34t-55.5 -12.5q-25 0 -64 -1t-80 -1h-77.5t-57.5 4 q-80 10 -116.5 70.5t-36.5 132.5zM164 1004l227 -5l187 -286l-86 -2zM209 240q49 25 101 54.5t100.5 65t84 79.5t52.5 102q-57 0 -109.5 -30t-96.5 -74t-78 -97t-54 -100z" />
<glyph unicode="&#xe9;" horiz-adv-x="743" d="M72 213q0 92 39 176t104.5 149.5t150.5 104.5t175 39q33 0 64.5 -7t58 -22.5t43 -42t16.5 -63.5q0 -74 -42 -134.5t-103.5 -107.5t-133 -82t-129.5 -57q76 -6 152 -8t151 -2q-6 -29 -11 -54.5t-16 -47t-31.5 -34t-55.5 -12.5q-25 0 -64 -1t-80 -1h-77.5t-57.5 4 q-80 10 -116.5 70.5t-36.5 132.5zM209 240q49 25 101 54.5t100.5 65t84 79.5t52.5 102q-57 0 -109.5 -30t-96.5 -74t-78 -97t-54 -100zM378 713l187 286l227 5l-328 -293z" />
<glyph unicode="&#xea;" horiz-adv-x="743" d="M72 213q0 92 39 176t104.5 149.5t150.5 104.5t175 39q33 0 64.5 -7t58 -22.5t43 -42t16.5 -63.5q0 -74 -42 -134.5t-103.5 -107.5t-133 -82t-129.5 -57q76 -6 152 -8t151 -2q-6 -29 -11 -54.5t-16 -47t-31.5 -34t-55.5 -12.5q-25 0 -64 -1t-80 -1h-77.5t-57.5 4 q-80 10 -116.5 70.5t-36.5 132.5zM209 240q49 25 101 54.5t100.5 65t84 79.5t52.5 102q-57 0 -109.5 -30t-96.5 -74t-78 -97t-54 -100zM293 754l203 250l8 6h207l4 -6l108 -250l-65 -2l-176 145l-228 -145z" />
<glyph unicode="&#xeb;" horiz-adv-x="743" d="M72 213q0 92 39 176t104.5 149.5t150.5 104.5t175 39q33 0 64.5 -7t58 -22.5t43 -42t16.5 -63.5q0 -74 -42 -134.5t-103.5 -107.5t-133 -82t-129.5 -57q76 -6 152 -8t151 -2q-6 -29 -11 -54.5t-16 -47t-31.5 -34t-55.5 -12.5q-25 0 -64 -1t-80 -1h-77.5t-57.5 4 q-80 10 -116.5 70.5t-36.5 132.5zM209 240q49 25 101 54.5t100.5 65t84 79.5t52.5 102q-57 0 -109.5 -30t-96.5 -74t-78 -97t-54 -100zM330 971q0 53 30.5 87t85.5 34t87 -36t32 -89q0 -57 -35.5 -87t-91.5 -30q-53 0 -80.5 34t-27.5 87zM647 973q0 47 35 83t82 36 q55 0 87 -38t32 -91t-34 -83t-87 -30q-49 0 -82 37t-33 86z" />
<glyph unicode="&#xec;" horiz-adv-x="428" d="M8 1004l227 -5l187 -286l-86 -2zM20 109q0 61 27 121.5t51 113.5q35 74 65.5 148.5t65.5 146.5q45 6 90.5 7t90.5 7q-47 -121 -105.5 -242.5t-97.5 -246.5q31 -6 69.5 -4t71.5 2q-12 -35 -32.5 -82t-39.5 -80q-23 -4 -39 1t-38 5q-33 0 -65 1t-57.5 10.5t-41 30 t-15.5 61.5z" />
<glyph unicode="&#xed;" horiz-adv-x="428" d="M20 109q0 61 27 121.5t51 113.5q35 74 65.5 148.5t65.5 146.5q45 6 90.5 7t90.5 7q-47 -121 -105.5 -242.5t-97.5 -246.5q31 -6 69.5 -4t71.5 2q-12 -35 -32.5 -82t-39.5 -80q-23 -4 -39 1t-38 5q-33 0 -65 1t-57.5 10.5t-41 30t-15.5 61.5zM264 713l187 286l227 5 l-328 -293z" />
<glyph unicode="&#xee;" horiz-adv-x="428" d="M20 109q0 61 27 121.5t51 113.5q35 74 65.5 148.5t65.5 146.5q45 6 90.5 7t90.5 7q-47 -121 -105.5 -242.5t-97.5 -246.5q31 -6 69.5 -4t71.5 2q-12 -35 -32.5 -82t-39.5 -80q-23 -4 -39 1t-38 5q-33 0 -65 1t-57.5 10.5t-41 30t-15.5 61.5zM86 754l203 250l8 6h207l4 -6 l108 -250l-65 -2l-176 145l-228 -145z" />
<glyph unicode="&#xef;" horiz-adv-x="428" d="M20 109q0 61 27 121.5t51 113.5q35 74 65.5 148.5t65.5 146.5q45 6 90.5 7t90.5 7q-47 -121 -105.5 -242.5t-97.5 -246.5q31 -6 69.5 -4t71.5 2q-12 -35 -32.5 -82t-39.5 -80q-23 -4 -39 1t-38 5q-33 0 -65 1t-57.5 10.5t-41 30t-15.5 61.5zM99 971q0 53 30.5 87t85.5 34 t87 -36t32 -89q0 -57 -35.5 -87t-91.5 -30q-53 0 -80.5 34t-27.5 87zM416 973q0 47 35 83t82 36q55 0 87 -38t32 -91t-34 -83t-87 -30q-49 0 -82 37t-33 86z" />
<glyph unicode="&#xf1;" horiz-adv-x="780" d="M-53 4q47 127 107.5 246t107.5 246q14 39 30.5 74.5t34.5 72.5l197 25q-18 -55 -48 -105.5t-42 -107.5l67.5 57.5t87 66t91.5 55t82 23.5q41 0 69.5 -30.5t28.5 -71.5q0 -43 -18.5 -94t-43 -102.5t-50 -102.5t-40.5 -94h142q-6 -39 -21.5 -82t-36.5 -78q-25 2 -74 0 t-98 2t-86 21.5t-37 58.5q0 27 19.5 77t46 106.5t50.5 110.5t34 91q-45 -6 -100.5 -52t-107.5 -106.5t-96 -123t-67 -101.5q-4 -6 -7 -18.5t-6 -24.5t-8 -21.5t-14 -11.5q-16 -6 -41.5 -7t-53.5 -1t-54.5 1t-44.5 1zM274 852q20 45 36 78t37.5 53.5t55 28.5t88.5 8 q43 0 67 -16t42 -36.5t34.5 -37t45.5 -16.5q41 -2 62.5 26.5t37.5 51.5q8 -4 19.5 -14.5t19.5 -24t14.5 -26.5t6.5 -21q0 -41 -42 -75t-116 -36q-43 0 -68.5 16.5t-46 37t-42 38t-54.5 17.5q-23 0 -35 -15.5t-20 -33t-14.5 -33t-16.5 -15.5q-35 0 -71 17.5t-40 27.5z" />
<glyph unicode="&#xf2;" horiz-adv-x="702" d="M20 236q0 76 30 155.5t82 144t123 105.5t153 41q90 0 142 -41t81 -125q27 -6 53.5 -7t52.5 -1q-6 -35 -13 -66.5t-19 -64.5q-20 -14 -46 -23.5t-36 -34.5q-29 -61 -54.5 -121.5t-79.5 -107.5q-41 -35 -100 -62.5t-113 -27.5q-117 0 -186.5 56.5t-69.5 179.5zM143 1004 l227 -5l187 -286l-86 -2zM186 270q0 -47 17.5 -78.5t70.5 -31.5q39 0 68 17.5t52.5 45t41 59t31.5 62.5q-35 18 -53.5 34.5t-26.5 37t-9 47t-1 61.5q-82 -25 -136.5 -96.5t-54.5 -157.5z" />
<glyph unicode="&#xf3;" horiz-adv-x="702" d="M20 236q0 76 30 155.5t82 144t123 105.5t153 41q90 0 142 -41t81 -125q27 -6 53.5 -7t52.5 -1q-6 -35 -13 -66.5t-19 -64.5q-20 -14 -46 -23.5t-36 -34.5q-29 -61 -54.5 -121.5t-79.5 -107.5q-41 -35 -100 -62.5t-113 -27.5q-117 0 -186.5 56.5t-69.5 179.5zM186 270 q0 -47 17.5 -78.5t70.5 -31.5q39 0 68 17.5t52.5 45t41 59t31.5 62.5q-35 18 -53.5 34.5t-26.5 37t-9 47t-1 61.5q-82 -25 -136.5 -96.5t-54.5 -157.5zM424 713l187 286l227 5l-328 -293z" />
<glyph unicode="&#xf4;" horiz-adv-x="702" d="M20 236q0 76 30 155.5t82 144t123 105.5t153 41q90 0 142 -41t81 -125q27 -6 53.5 -7t52.5 -1q-6 -35 -13 -66.5t-19 -64.5q-20 -14 -46 -23.5t-36 -34.5q-29 -61 -54.5 -121.5t-79.5 -107.5q-41 -35 -100 -62.5t-113 -27.5q-117 0 -186.5 56.5t-69.5 179.5zM186 270 q0 -47 17.5 -78.5t70.5 -31.5q39 0 68 17.5t52.5 45t41 59t31.5 62.5q-35 18 -53.5 34.5t-26.5 37t-9 47t-1 61.5q-82 -25 -136.5 -96.5t-54.5 -157.5zM195 754l203 250l8 6h207l4 -6l108 -250l-65 -2l-176 145l-228 -145z" />
<glyph unicode="&#xf5;" horiz-adv-x="702" d="M20 236q0 76 30 155.5t82 144t123 105.5t153 41q90 0 142 -41t81 -125q27 -6 53.5 -7t52.5 -1q-6 -35 -13 -66.5t-19 -64.5q-20 -14 -46 -23.5t-36 -34.5q-29 -61 -54.5 -121.5t-79.5 -107.5q-41 -35 -100 -62.5t-113 -27.5q-117 0 -186.5 56.5t-69.5 179.5zM186 270 q0 -47 17.5 -78.5t70.5 -31.5q39 0 68 17.5t52.5 45t41 59t31.5 62.5q-35 18 -53.5 34.5t-26.5 37t-9 47t-1 61.5q-82 -25 -136.5 -96.5t-54.5 -157.5zM209 815q20 45 36 78t37.5 53.5t55 28.5t88.5 8q43 0 67 -16t42 -36.5t34.5 -37t45.5 -16.5q41 -2 62.5 26.5t37.5 51.5 q8 -4 19.5 -14.5t19.5 -24t14.5 -26.5t6.5 -21q0 -41 -42 -75t-116 -36q-43 0 -68.5 16.5t-46 37t-42 38t-54.5 17.5q-23 0 -35 -15.5t-20 -33t-14.5 -33t-16.5 -15.5q-35 0 -71 17.5t-40 27.5z" />
<glyph unicode="&#xf6;" horiz-adv-x="761" d="M20 242q0 76 35 152.5t92.5 138t132 100.5t152.5 39q53 0 101.5 -28t76.5 -73q10 -18 19.5 -37.5t21.5 -35.5q25 -6 49.5 -4t49.5 -5q-29 -72 -41 -139q-27 -6 -44.5 -10t-29.5 -31q-25 -59 -58.5 -116.5t-78.5 -102.5t-102.5 -71.5t-129.5 -26.5q-117 0 -181.5 66.5 t-64.5 183.5zM182 266q0 -43 24.5 -77.5t72.5 -34.5q43 0 72.5 16t51 42t37 58.5t31.5 65.5l-51 51t-20.5 27.5t-8.5 34t-10 67.5q-35 -6 -70 -33.5t-63.5 -63.5t-47 -77t-18.5 -76zM297 934q0 53 31 87t86 34t86.5 -36t31.5 -89q0 -57 -35.5 -87t-90.5 -30q-53 0 -81 34 t-28 87zM614 936q0 47 35 83t82 36q55 0 87 -38t32 -91t-34 -83t-87 -30q-49 0 -82 37t-33 86z" />
<glyph unicode="&#xf8;" horiz-adv-x="702" d="M-79 -51q22 43 53.5 79.5t65.5 75.5q104 126 205.5 250.5t206.5 249.5q43 51 82.5 103t85.5 100q11 12 19 18t15.5 9.5t17.5 4.5t26 5q28 7 58.5 15.5t57.5 8.5q8 0 24 -2q-96 -103 -177 -210.5t-172 -211.5q-105 -122 -205.5 -245.5t-198.5 -249.5h-164zM20 236 q0 76 30 155.5t82 144t123 105.5t153 41q90 0 142 -41t81 -125q27 -6 53.5 -7t52.5 -1q-6 -35 -13 -66.5t-19 -64.5q-20 -14 -46 -23.5t-36 -34.5q-29 -61 -54.5 -121.5t-79.5 -107.5q-41 -35 -100 -62.5t-113 -27.5q-117 0 -186.5 56.5t-69.5 179.5zM186 270 q0 -47 17.5 -78.5t70.5 -31.5q39 0 68 17.5t52.5 45t41 59t31.5 62.5q-35 18 -53.5 34.5t-26.5 37t-9 47t-1 61.5q-82 -25 -136.5 -96.5t-54.5 -157.5z" />
<glyph unicode="&#xf9;" horiz-adv-x="782" d="M20 100q0 18 12.5 59.5t31 92.5t41 108.5t45 109.5t42 93t29.5 62q41 23 87 24.5t93 7.5q-18 -66 -44.5 -129t-52 -126.5t-49.5 -128t-36 -132.5q47 20 84 45t72 62q18 18 26.5 37.5t14.5 39t11 39t15 39.5q8 18 23.5 47t31 60t32 58.5t28.5 39.5q16 18 42 26.5 t54.5 12.5t57 5t51.5 5q-12 -53 -34.5 -105t-47.5 -99q-16 -31 -35.5 -57.5t-37 -54.5t-29 -59.5t-11.5 -70.5q0 -27 20.5 -38t49.5 -14t58.5 -2t47.5 1q-10 -41 -24 -80t-33 -76q-49 0 -103.5 -1t-101.5 9q-31 6 -50 34t-40 48q-31 -14 -58.5 -31.5t-55 -34t-58.5 -27.5 t-65 -11q-20 0 -44 9t-43.5 24.5t-33 36t-13.5 42.5zM184 1004l227 -5l187 -286l-86 -2z" />
<glyph unicode="&#xfa;" horiz-adv-x="782" d="M20 100q0 18 12.5 59.5t31 92.5t41 108.5t45 109.5t42 93t29.5 62q41 23 87 24.5t93 7.5q-18 -66 -44.5 -129t-52 -126.5t-49.5 -128t-36 -132.5q47 20 84 45t72 62q18 18 26.5 37.5t14.5 39t11 39t15 39.5q8 18 23.5 47t31 60t32 58.5t28.5 39.5q16 18 42 26.5 t54.5 12.5t57 5t51.5 5q-12 -53 -34.5 -105t-47.5 -99q-16 -31 -35.5 -57.5t-37 -54.5t-29 -59.5t-11.5 -70.5q0 -27 20.5 -38t49.5 -14t58.5 -2t47.5 1q-10 -41 -24 -80t-33 -76q-49 0 -103.5 -1t-101.5 9q-31 6 -50 34t-40 48q-31 -14 -58.5 -31.5t-55 -34t-58.5 -27.5 t-65 -11q-20 0 -44 9t-43.5 24.5t-33 36t-13.5 42.5zM436 713l187 286l227 5l-328 -293z" />
<glyph unicode="&#xfb;" horiz-adv-x="782" d="M20 100q0 18 12.5 59.5t31 92.5t41 108.5t45 109.5t42 93t29.5 62q41 23 87 24.5t93 7.5q-18 -66 -44.5 -129t-52 -126.5t-49.5 -128t-36 -132.5q47 20 84 45t72 62q18 18 26.5 37.5t14.5 39t11 39t15 39.5q8 18 23.5 47t31 60t32 58.5t28.5 39.5q16 18 42 26.5 t54.5 12.5t57 5t51.5 5q-12 -53 -34.5 -105t-47.5 -99q-16 -31 -35.5 -57.5t-37 -54.5t-29 -59.5t-11.5 -70.5q0 -27 20.5 -38t49.5 -14t58.5 -2t47.5 1q-10 -41 -24 -80t-33 -76q-49 0 -103.5 -1t-101.5 9q-31 6 -50 34t-40 48q-31 -14 -58.5 -31.5t-55 -34t-58.5 -27.5 t-65 -11q-20 0 -44 9t-43.5 24.5t-33 36t-13.5 42.5zM258 754l203 250l8 6h207l4 -6l108 -250l-65 -2l-176 145l-228 -145z" />
<glyph unicode="&#xfc;" horiz-adv-x="843" d="M20 98q0 39 23 110t51.5 147.5t58.5 149.5t46 116q49 12 97 23t99 15q-23 -66 -50.5 -129t-54 -125.5t-50 -127t-35.5 -132.5q23 2 49.5 13.5t51 27t46 35t33.5 37.5q16 25 26.5 58.5t20.5 62.5q25 63 50.5 125.5t60.5 122.5q49 18 101 22t104 10q-27 -102 -76 -185 t-97 -175q-8 -16 -13 -36.5t-5 -37.5q0 -39 25 -57l153 -6q-6 -37 -18 -78t-37 -72q-51 -12 -103.5 -11t-101.5 11q-31 6 -49 35t-41 47q-57 -35 -111.5 -69.5t-126.5 -34.5q-47 0 -87 27.5t-40 80.5zM272 926q0 66 34 98.5t93 32.5q47 0 77 -34t30 -81q0 -61 -35 -91 t-94 -30q-41 0 -73 32t-32 73zM584 950q0 20 9 42t25.5 40.5t36.5 29.5t43 11q51 0 88 -41t37 -90t-41 -84t-88 -35t-78.5 41t-31.5 86z" />
<glyph unicode="&#xfd;" horiz-adv-x="747" d="M-111 -655q8 18 21.5 42.5t28 51t29.5 50.5t28 36q18 16 38.5 28.5t43 22.5t43 23.5t38.5 31.5q43 47 73 101.5t51.5 112t39 118t35.5 119.5q-23 -10 -49.5 -25.5t-55 -30t-56 -24.5t-52.5 -10q-12 0 -28.5 7t-33 17.5t-28.5 23.5t-16 26q-4 10 -5.5 30.5t-1.5 30.5 q0 41 15.5 105.5t38 131t50 126t52.5 92.5q51 25 103.5 46t109.5 27q-49 -123 -103.5 -242.5t-86.5 -248.5q53 12 97 51t85 72q35 27 55.5 74t36.5 94t34.5 87t53.5 54q53 23 109.5 34t111.5 23q-20 -53 -47.5 -99t-56.5 -90t-55.5 -86t-45.5 -85q-18 -45 -30.5 -95.5 t-28.5 -97.5q-16 -57 -36.5 -112.5t-37.5 -112.5q-27 -90 -62.5 -165t-86.5 -152q-41 -61 -98.5 -101.5t-122.5 -70.5q-47 -23 -95.5 -32t-101.5 -9zM479 713l187 286l227 5l-328 -293z" />
<glyph unicode="&#xff;" horiz-adv-x="776" d="M-82 -655q8 18 21.5 42.5t28 51t29.5 50.5t28 36q18 16 38.5 28.5t43 22.5t43 23.5t38.5 31.5q43 47 73 101.5t51.5 112t39 118t35.5 119.5q-23 -10 -49.5 -25.5t-55 -30t-56 -24.5t-52.5 -10q-12 0 -28.5 7t-33 17.5t-28.5 23.5t-16 26q-4 10 -5.5 30.5t-1.5 30.5 q0 41 15.5 105.5t38 131t50 126t52.5 92.5q51 25 103.5 46t109.5 27q-49 -123 -103.5 -242.5t-86.5 -248.5q53 12 97 51t85 72q35 27 55.5 74t36.5 94t34.5 87t53.5 54q53 23 109.5 34t111.5 23q-20 -53 -47.5 -99t-56.5 -90t-55.5 -86t-45.5 -85q-18 -45 -30.5 -95.5 t-28.5 -97.5q-16 -57 -36.5 -112.5t-37.5 -112.5q-27 -90 -62.5 -165t-86.5 -152q-41 -61 -98.5 -101.5t-122.5 -70.5q-47 -23 -95.5 -32t-101.5 -9zM334 971q0 53 30.5 87t85.5 34t87 -36t32 -89q0 -57 -35.5 -87t-91.5 -30q-53 0 -80.5 34t-27.5 87zM651 973q0 47 35 83 t82 36q55 0 87 -38t32 -91t-34 -83t-87 -30q-49 0 -82 37t-33 86z" />
<glyph unicode="&#x2c6;" horiz-adv-x="0" d="M375 754l203 250l8 6h207l4 -6l108 -250l-65 -2l-176 145l-228 -145z" />
<glyph unicode="&#x2dc;" horiz-adv-x="0" d="M16 868q20 45 36 78t37.5 53.5t55 28.5t88.5 8q43 0 67 -16t42 -36.5t34.5 -37t45.5 -16.5q41 -2 62.5 26.5t37.5 51.5q8 -4 19.5 -14.5t19.5 -24t14.5 -26.5t6.5 -21q0 -41 -42 -75t-116 -36q-43 0 -68.5 16.5t-46 37t-42 38t-54.5 17.5q-23 0 -35 -15.5t-20 -33 t-14.5 -33t-16.5 -15.5q-35 0 -71 17.5t-40 27.5z" />
<glyph unicode="&#x2000;" horiz-adv-x="928" />
<glyph unicode="&#x2001;" horiz-adv-x="1857" />
<glyph unicode="&#x2002;" horiz-adv-x="928" />
<glyph unicode="&#x2003;" horiz-adv-x="1857" />
<glyph unicode="&#x2004;" horiz-adv-x="619" />
<glyph unicode="&#x2005;" horiz-adv-x="464" />
<glyph unicode="&#x2006;" horiz-adv-x="309" />
<glyph unicode="&#x2007;" horiz-adv-x="309" />
<glyph unicode="&#x2008;" horiz-adv-x="232" />
<glyph unicode="&#x2009;" horiz-adv-x="371" />
<glyph unicode="&#x200a;" horiz-adv-x="103" />
<glyph unicode="&#x2010;" d="M178 473l66 172h600l-66 -172h-600z" />
<glyph unicode="&#x2011;" d="M178 473l66 172h600l-66 -172h-600z" />
<glyph unicode="&#x2012;" d="M178 473l66 172h600l-66 -172h-600z" />
<glyph unicode="&#x2013;" horiz-adv-x="937" d="M178 473l66 172h747l-65 -172h-748z" />
<glyph unicode="&#x2014;" horiz-adv-x="1013" d="M178 473l66 172h841l-65 -172h-842z" />
<glyph unicode="&#x2018;" horiz-adv-x="356" d="M375 1128q0 18 17.5 56.5t41 79.5t48 77.5t38.5 53.5q43 0 86 1t86 7q4 -6 8.5 -12.5t8.5 -12.5q-59 -80 -107 -164q25 0 49.5 -1t48.5 -7q-12 -43 -38.5 -81t-51.5 -74q-10 -16 -24.5 -22.5t-32.5 -6.5q-31 0 -62.5 1t-57 11t-42 31.5t-16.5 62.5z" />
<glyph unicode="&#x2019;" horiz-adv-x="356" d="M375 1044q59 80 106 164q-25 0 -49 1t-49 8q12 43 39 80.5t51 74.5q10 16 24.5 22.5t32.5 6.5q31 0 63 -1t57.5 -11.5t42 -32t16.5 -62.5q0 -18 -17.5 -56t-41 -79t-48 -78t-39.5 -53q-43 0 -86 -1t-86 -7l-8 12z" />
<glyph unicode="&#x201a;" horiz-adv-x="524" d="M20 -78l99 123q12 16 10 48t6 50q10 29 34 57.5t40 57.5l278 -2q-41 -66 -93 -126t-103 -120q-10 -12 -24.5 -30.5t-31 -37t-34 -31.5t-33.5 -13q-39 0 -76 4t-72 20z" />
<glyph unicode="&#x201c;" horiz-adv-x="860" d="M408 1040q49 82 109.5 159t119.5 153q18 25 45 34t55.5 12t57 3t55.5 6q-18 -53 -52 -99t-71 -89q10 -6 20.5 -12.5t20.5 -12.5q-31 -37 -53.5 -80t-61.5 -76q-20 0 -40.5 -1t-41.5 -1q-41 0 -81.5 2t-81.5 2zM776 1038q66 90 130.5 178.5t131.5 174.5q45 12 95 12 q47 0 94 -12q-18 -43 -47 -81t-60 -75q6 -10 11.5 -22.5t5.5 -26.5q-20 -35 -43 -78t-56 -70q-23 -2 -44 -3t-44 -1q-43 0 -87 2t-87 2z" />
<glyph unicode="&#x201d;" horiz-adv-x="860" d="M408 1051q18 43 46.5 80.5t59.5 74.5q-6 10 -11 22.5t-5 26.5q20 35 42.5 78t55.5 70q23 2 44.5 3t43.5 1q43 0 87 -2t87 -2q-66 -90 -130 -178t-132 -174q-47 -12 -94 -13q-49 0 -94 13zM784 1034q18 53 52 99.5t71 89.5l-20 12t-21 12q31 37 53.5 80t61.5 76 q20 0 40.5 1t41.5 1q41 0 82 -2t82 -2q-49 -82 -109.5 -159t-120.5 -152q-18 -25 -44.5 -34t-55.5 -12.5t-57.5 -3.5t-55.5 -6z" />
<glyph unicode="&#x201e;" horiz-adv-x="868" d="M20 -78l99 123q12 16 10 48t6 50q10 29 34 57.5t40 57.5l278 -2q-41 -66 -93 -126t-103 -120q-10 -12 -24.5 -30.5t-31 -37t-34 -31.5t-33.5 -13q-39 0 -76 4t-72 20zM397 -96q6 10 24.5 33.5t38 50t34 49t14.5 31.5q0 10 -3 21t-3 22q0 8 11 27.5t26.5 41t31 41 t23.5 27.5q63 6 126.5 4t127.5 4q-12 -53 -52 -92t-71 -80q-35 -47 -68.5 -94t-78.5 -86q-27 -6 -52.5 -11.5t-52.5 -5.5q-45 0 -76 17z" />
<glyph unicode="&#x2026;" horiz-adv-x="1368" d="M213 172q0 61 47.5 98t104.5 37q59 0 101 -46t42 -103q0 -29 -14.5 -57.5t-38 -51t-52 -38t-55.5 -15.5q-33 0 -57.5 16.5t-42 42t-26.5 57t-9 60.5zM549 172q0 61 47 98t104 37q59 0 101.5 -46t42.5 -103q0 -29 -14.5 -57.5t-38 -51t-52 -38t-55.5 -15.5 q-33 0 -57.5 16.5t-42 42t-26.5 57t-9 60.5zM885 172q0 61 47 98t104 37q59 0 101.5 -46t42.5 -103q0 -29 -14.5 -57.5t-38 -51t-52 -38t-55.5 -15.5q-33 0 -57.5 16.5t-42 42t-26.5 57t-9 60.5z" />
<glyph unicode="&#x202f;" horiz-adv-x="371" />
<glyph unicode="&#x2039;" horiz-adv-x="499" d="M20 317q6 33 40 59.5t59 47.5q72 57 136 114.5t134 114.5l90 -90q-74 -55 -143.5 -114.5t-142.5 -114.5q27 -35 62.5 -61.5t69 -54.5t64.5 -58.5t49 -71.5q-18 -14 -41.5 -27.5t-48.5 -13.5q-20 0 -41 16q-72 63 -140.5 129t-146.5 125z" />
<glyph unicode="&#x203a;" horiz-adv-x="550" d="M20 102q0 10 5.5 19.5t9.5 17.5q63 55 133 101.5t137 95.5q-61 55 -121.5 111.5t-115.5 117.5q47 47 106 82q74 -86 158 -161.5t170 -149.5q-41 -27 -93.5 -66t-106.5 -79.5t-103 -82.5t-82 -75q-6 2 -22.5 11t-33 19.5t-29 20.5t-12.5 18z" />
<glyph unicode="&#x205f;" horiz-adv-x="464" />
<glyph unicode="&#x25fc;" horiz-adv-x="655" d="M0 0v655h655v-655h-655z" />
</font>
</defs>
</svg>
